<svg xmlns="http://www.w3.org/2000/svg" xmlns:xlink="http://www.w3.org/1999/xlink" xmlns:lucid="lucid" width="1534.65" height="1343.22"><g transform="translate(-27.716535433070703 20)" lucid:page-tab-id="0_0"><path d="M0 0h1870.87v1322.83H0z" fill="#fff"/><path d="M855.43 6c0-3.3 2.7-6 6-6h148c3.32 0 6 2.7 6 6v108c0 3.3-2.68 6-6 6h-148c-3.3 0-6-2.7-6-6z" stroke="#5e5e5e" stroke-width="3" fill="#b2d6ef"/><use xlink:href="#a" transform="matrix(1,0,0,1,867.4330708661416,12) translate(35.31481481481482 26.77777777777778)"/><use xlink:href="#b" transform="matrix(1,0,0,1,867.4330708661416,12) translate(29.790123456790127 53.44444444444445)"/><use xlink:href="#c" transform="matrix(1,0,0,1,867.4330708661416,12) translate(39.635802469135804 80.11111111111111)"/><path d="M929.97 162.5c3.02-1.4 7.9-1.4 10.92 0l142.93 65.13c3.02 1.37 3.02 3.6 0 4.98L940.9 297.76c-3.02 1.37-7.9 1.37-10.93 0L787.03 232.6c-3-1.37-3-3.6 0-4.97z" stroke="#5e5e5e" stroke-width="3" fill="#83bbe5"/><use xlink:href="#d" transform="matrix(1,0,0,1,786.5748031496059,165) translate(66.38154320987653 54.62152777777778)"/><use xlink:href="#e" transform="matrix(1,0,0,1,786.5748031496059,165) translate(89.83833333333332 54.62152777777778)"/><use xlink:href="#f" transform="matrix(1,0,0,1,786.5748031496059,165) translate(152.73956790123455 54.62152777777778)"/><use xlink:href="#g" transform="matrix(1,0,0,1,786.5748031496059,165) translate(56.53586419753088 81.28819444444446)"/><use xlink:href="#h" transform="matrix(1,0,0,1,786.5748031496059,165) translate(93.57290123456791 81.28819444444446)"/><use xlink:href="#i" transform="matrix(1,0,0,1,786.5748031496059,165) translate(229.12845679012344 81.28819444444446)"/><path class="lucid-link lucid-hotspot lucid-overlay-hotspot" d="M929.97 162.5c3.02-1.4 7.9-1.4 10.92 0l142.93 65.13c3.02 1.37 3.02 3.6 0 4.98L940.9 297.76c-3.02 1.37-7.9 1.37-10.93 0L787.03 232.6c-3-1.37-3-3.6 0-4.97z" fill="none"/><path d="M935.43 122.5V141.58" stroke="#5e5e5e" stroke-width="2" fill="none"/><path d="M936.43 122.53h-2v-1.03h2z" fill="#5e5e5e"/><path d="M935.43 156.85l-4.63-14.27h9.27z" stroke="#5e5e5e" stroke-width="2" fill="#5e5e5e"/><path d="M936.43 308.78h-2v-7.63h2z" fill="#5e5e5e"/><path d="M936.43 301.18h-2v-1l2-.06zM935.43 335.5l-1.75-5.4h3.5z" fill="#5e5e5e"/><path d="M935.43 338.73l-2.8-8.62h2.1l.7 2.16.7-2.15h2.1z" fill="#5e5e5e"/><use xlink:href="#j" transform="matrix(1,0,0,1,920.1244288908326,308.77587916450324) translate(0 14.222222222222223)"/><path d="M340 6c0-3.3 2.7-6 6-6h148c3.3 0 6 2.7 6 6v46.67c0 3.3-2.7 6-6 6H346c-3.3 0-6-2.7-6-6z" stroke="#5e5e5e" stroke-width="3" fill="#b2d6ef"/><use xlink:href="#k" transform="matrix(1,0,0,1,345,5) translate(39.32098765432099 30.02777777777778)"/><path d="M340 64.67c0-3.32 2.7-6 6-6h148c3.3 0 6 2.68 6 6v46.66c0 3.32-2.7 6-6 6H346c-3.3 0-6-2.68-6-6z" stroke="#5e5e5e" stroke-width="3" fill="#83bbe5"/><use xlink:href="#l" transform="matrix(1,0,0,1,345,63.66666666666662) translate(30.061728395061728 30.02777777777778)"/><path d="M775.43 346.24c0-3.32 2.7-6 6-6h308c3.32 0 6 2.68 6 6v84.9c0 3.3-2.68 6-6 6h-308c-3.3 0-6-2.7-6-6z" stroke="#5e5e5e" stroke-width="3" fill="#83bbe5"/><use xlink:href="#m" transform="matrix(1,0,0,1,787.4330708661414,352.23522242535034) translate(6.240740740740733 26.90277777777778)"/><use xlink:href="#n" transform="matrix(1,0,0,1,787.4330708661414,352.23522242535034) translate(74.08024691358024 26.90277777777778)"/><use xlink:href="#o" transform="matrix(1,0,0,1,787.4330708661414,352.23522242535034) translate(95.0679012345679 26.90277777777778)"/><use xlink:href="#p" transform="matrix(1,0,0,1,787.4330708661414,352.23522242535034) translate(208.46296296296296 26.90277777777778)"/><use xlink:href="#q" transform="matrix(1,0,0,1,787.4330708661414,352.23522242535034) translate(18.21604938271605 53.56944444444445)"/><use xlink:href="#r" transform="matrix(1,0,0,1,787.4330708661414,352.23522242535034) translate(84.88271604938271 53.56944444444445)"/><use xlink:href="#s" transform="matrix(1,0,0,1,787.4330708661414,352.23522242535034) translate(115.74691358024691 53.56944444444445)"/><use xlink:href="#t" transform="matrix(1,0,0,1,787.4330708661414,352.23522242535034) translate(193.95679012345678 53.56944444444445)"/><path class="lucid-link lucid-hotspot lucid-overlay-hotspot" d="M775.43 346.24c0-3.32 2.7-6 6-6h308c3.32 0 6 2.68 6 6v84.9c0 3.3-2.68 6-6 6h-308c-3.3 0-6-2.7-6-6z" fill="none"/><path d="M775.43 483.14c0-3.32 2.7-6 6-6h308c3.32 0 6 2.68 6 6v68c0 3.3-2.68 6-6 6h-308c-3.3 0-6-2.7-6-6z" stroke="#5e5e5e" stroke-width="3" fill="#b2d6ef"/><use xlink:href="#u" transform="matrix(1,0,0,1,787.4330708661414,489.1352224253503) translate(44.358024691358025 32.02777777777778)"/><use xlink:href="#v" transform="matrix(1,0,0,1,787.4330708661414,489.1352224253503) translate(102.38271604938271 32.02777777777778)"/><use xlink:href="#g" transform="matrix(1,0,0,1,787.4330708661414,489.1352224253503) translate(157.87654320987656 32.02777777777778)"/><use xlink:href="#c" transform="matrix(1,0,0,1,787.4330708661414,489.1352224253503) translate(194.91358024691357 32.02777777777778)"/><path d="M935.43 439.64v17.5" stroke="#5e5e5e" stroke-width="2" fill="none"/><path d="M936.43 439.66h-2v-1.02h2z" fill="#5e5e5e"/><path d="M935.43 472.4l-4.63-14.27h9.27z" stroke="#5e5e5e" stroke-width="2" fill="#5e5e5e"/><path d="M775.43 607.36c0-3.3 2.7-6 6-6H1094c3.3 0 6 2.7 6 6v68c0 3.32-2.7 6-6 6H781.43c-3.3 0-6-2.68-6-6z" stroke="#5e5e5e" stroke-width="3" fill="#83bbe5"/><use xlink:href="#w" transform="matrix(1,0,0,1,787.4330708661414,613.3647775746497) translate(5.623456790123441 17.77777777777778)"/><use xlink:href="#x" transform="matrix(1,0,0,1,787.4330708661414,613.3647775746497) translate(62.41358024691357 17.77777777777778)"/><use xlink:href="#y" transform="matrix(1,0,0,1,787.4330708661414,613.3647775746497) translate(130.25308641975306 17.77777777777778)"/><use xlink:href="#z" transform="matrix(1,0,0,1,787.4330708661414,613.3647775746497) translate(212.84567901234567 17.77777777777778)"/><use xlink:href="#A" transform="matrix(1,0,0,1,787.4330708661414,613.3647775746497) translate(231.3641975308642 17.77777777777778)"/><use xlink:href="#B" transform="matrix(1,0,0,1,787.4330708661414,613.3647775746497) translate(56.11728395061729 44.44444444444444)"/><use xlink:href="#C" transform="matrix(1,0,0,1,787.4330708661414,613.3647775746497) translate(142.41358024691357 44.44444444444444)"/><path class="lucid-link lucid-hotspot lucid-overlay-hotspot" d="M775.43 607.36c0-3.3 2.7-6 6-6H1094c3.3 0 6 2.7 6 6v68c0 3.32-2.7 6-6 6H781.43c-3.3 0-6-2.68-6-6z" fill="none"/><path d="M1162.36 206.12c0-3.32 2.7-6 6-6h132.57c3.3 0 6 2.68 6 6v48c0 3.3-2.7 6-6 6h-132.57c-3.3 0-6-2.7-6-6z" stroke="#5e5e5e" stroke-width="3" fill="#b2d6ef"/><use xlink:href="#D" transform="matrix(1,0,0,1,1174.3622047244094,212.11761121267517) translate(29.08024691358025 22.27777777777778)"/><path d="M1112.33 231.12h-23.92v-2h23.93zm30.03 0h-6.42v-2h6.42z" fill="#5e5e5e"/><path d="M1088.44 231.12h-1.38l.7-1.98.68-.02zM1157.63 230.12l-14.27 4.63v-9.27z" fill="#5e5e5e"/><path d="M1160.86 230.12l-18.5 6v-12zm-16.5 3.26l10.03-3.26-10.04-3.26z" fill="#5e5e5e"/><use xlink:href="#E" transform="matrix(1,0,0,1,1112.3337452332191,219.4509444747725) translate(0 14.222222222222223)"/><path d="M1309.43 230.12h32.93" stroke="#5e5e5e" stroke-width="2" fill="none"/><path d="M1309.45 231.12h-1.02v-2h1.02z" fill="#5e5e5e"/><path d="M1357.63 230.12l-14.27 4.63v-9.27z" stroke="#5e5e5e" stroke-width="2" fill="#5e5e5e"/><path d="M935.43 559.64v21.72" stroke="#5e5e5e" stroke-width="2" fill="none"/><path d="M936.43 559.66h-2v-1.02h2z" fill="#5e5e5e"/><path d="M935.43 596.63l-4.63-14.27h9.27z" stroke="#5e5e5e" stroke-width="2" fill="#5e5e5e"/><path d="M1162.36 1223.22c0-3.32 2.7-6 6-6h223.44c3.3 0 6 2.68 6 6v66.52c0 3.32-2.7 6-6 6h-223.44c-3.3 0-6-2.68-6-6z" stroke="#5e5e5e" stroke-width="3" fill="#b2d6ef"/><use xlink:href="#F" transform="matrix(1,0,0,1,1174.3622047244094,1229.2152308507007) translate(13.5 17.77777777777778)"/><use xlink:href="#G" transform="matrix(1,0,0,1,1174.3622047244094,1229.2152308507007) translate(96.15432098765432 17.77777777777778)"/><use xlink:href="#H" transform="matrix(1,0,0,1,1174.3622047244094,1229.2152308507007) translate(161.46296296296296 17.77777777777778)"/><use xlink:href="#I" transform="matrix(1,0,0,1,1174.3622047244094,1229.2152308507007) translate(3.0679012345678984 44.44444444444444)"/><use xlink:href="#J" transform="matrix(1,0,0,1,1174.3622047244094,1229.2152308507007) translate(74.54938271604937 44.44444444444444)"/><use xlink:href="#c" transform="matrix(1,0,0,1,1174.3622047244094,1229.2152308507007) translate(152.2037037037037 44.44444444444444)"/><path d="M1162.36 607.36c0-3.3 2.7-6 6-6h223.44c3.3 0 6 2.7 6 6v66.53c0 3.3-2.7 6-6 6h-223.44c-3.3 0-6-2.7-6-6z" stroke="#5e5e5e" stroke-width="3" fill="#b2d6ef"/><use xlink:href="#K" transform="matrix(1,0,0,1,1174.3622047244094,613.3647775746497) translate(17.358024691358025 17.77777777777778)"/><use xlink:href="#L" transform="matrix(1,0,0,1,1174.3622047244094,613.3647775746497) translate(99.82716049382715 17.77777777777778)"/><use xlink:href="#M" transform="matrix(1,0,0,1,1174.3622047244094,613.3647775746497) translate(47.45061728395062 44.44444444444444)"/><path d="M1057.93 1256.48h84.43" stroke="#5e5e5e" stroke-width="2" fill="none"/><path d="M1057.96 1257.48h-1.03v-2h1.03z" fill="#5e5e5e"/><path d="M1157.63 1256.48l-14.27 4.63v-9.26z" stroke="#5e5e5e" stroke-width="2" fill="#5e5e5e"/><path d="M1280.08 1214.72V699.9" stroke="#5e5e5e" stroke-width="2" fill="none"/><path d="M1281.08 1215.72h-2v-1.03h2z" fill="#5e5e5e"/><path d="M1280.08 684.63l4.63 14.26h-9.26z" stroke="#5e5e5e" stroke-width="2" fill="#5e5e5e"/><path d="M1506.36 200.12c19.88 0 36 13.43 36 30s-16.12 30-36 30h-108c-19.88 0-36-13.43-36-30s16.12-30 36-30z" stroke="#000" stroke-width="3" fill="#b2d6ef"/><use xlink:href="#N" transform="matrix(1,0,0,1,1367.3622047246304,205.11761121267517) translate(12.253086419753089 30.27777777777778)"/><use xlink:href="#O" transform="matrix(1,0,0,1,1367.3622047246304,205.11761121267517) translate(81.26543209876543 30.27777777777778)"/><path d="M544 1060c19.88 0 36 13.43 36 30s-16.12 30-36 30H436c-19.88 0-36-13.43-36-30s16.12-30 36-30z" stroke="#000" stroke-width="3" fill="#b2d6ef"/><use xlink:href="#N" transform="matrix(1,0,0,1,405,1065) translate(12.253086419753089 30.27777777777778)"/><use xlink:href="#O" transform="matrix(1,0,0,1,405,1065) translate(81.26543209876543 30.27777777777778)"/><path d="M468 117.33c17.67 0 32 17.9 32 40s-14.33 40-32 40h-96c-17.67 0-32-17.9-32-40s14.33-40 32-40z" stroke="#000" stroke-width="3" fill="#fff"/><use xlink:href="#P" transform="matrix(1,0,0,1,345,122.33333333333326) translate(22.685185185185176 39.65277777777778)"/><path d="M320 346.24c0-3.32 2.7-6 6-6h403.43c3.32 0 6 2.68 6 6v84.9c0 3.3-2.68 6-6 6H326c-3.3 0-6-2.7-6-6z" fill="none"/><path d="M735.43 437.14c-5.52 0-10-4.48-10-10V398.7c0-5.54-4.47-10-10-10 5.53 0 10-4.5 10-10v-28.46c0-5.53 4.48-10 10-10" stroke="#5e5e5e" stroke-width="3" fill="none"/><use xlink:href="#Q" transform="matrix(1,0,0,1,325,345.23522242535034) translate(238.43827160493828 21.72222222222223)"/><use xlink:href="#R" transform="matrix(1,0,0,1,325,345.23522242535034) translate(307.4259259259259 21.72222222222223)"/><use xlink:href="#S" transform="matrix(1,0,0,1,325,345.23522242535034) translate(14.209876543209873 49.277777777777786)"/><use xlink:href="#T" transform="matrix(1,0,0,1,325,345.23522242535034) translate(32.72839506172839 49.277777777777786)"/><use xlink:href="#U" transform="matrix(1,0,0,1,325,345.23522242535034) translate(126.92592592592592 49.277777777777786)"/><use xlink:href="#V" transform="matrix(1,0,0,1,325,345.23522242535034) translate(163.96296296296296 49.277777777777786)"/><use xlink:href="#W" transform="matrix(1,0,0,1,325,345.23522242535034) translate(221.80246913580248 49.277777777777786)"/><use xlink:href="#X" transform="matrix(1,0,0,1,325,345.23522242535034) translate(239.0246913580247 49.277777777777786)"/><use xlink:href="#Y" transform="matrix(1,0,0,1,325,345.23522242535034) translate(298.22222222222223 49.277777777777786)"/><use xlink:href="#Z" transform="matrix(1,0,0,1,325,345.23522242535034) translate(329.08641975308643 49.277777777777786)"/><use xlink:href="#aa" transform="matrix(1,0,0,1,325,345.23522242535034) translate(55.44444444444446 75.94444444444446)"/><use xlink:href="#ab" transform="matrix(1,0,0,1,325,345.23522242535034) translate(80.13580246913581 75.94444444444446)"/><use xlink:href="#ac" transform="matrix(1,0,0,1,325,345.23522242535034) translate(122.0493827160494 75.94444444444446)"/><use xlink:href="#ad" transform="matrix(1,0,0,1,325,345.23522242535034) translate(159.08641975308643 75.94444444444446)"/><use xlink:href="#ae" transform="matrix(1,0,0,1,325,345.23522242535034) translate(205.93827160493828 75.94444444444446)"/><use xlink:href="#g" transform="matrix(1,0,0,1,325,345.23522242535034) translate(244.14814814814815 75.94444444444446)"/><use xlink:href="#af" transform="matrix(1,0,0,1,325,345.23522242535034) translate(281.1851851851852 75.94444444444446)"/><path d="M290 1223.22c0-3.32 2.7-6 6-6h463.43c3.32 0 6 2.68 6 6v66.52c0 3.32-2.68 6-6 6H296c-3.3 0-6-2.68-6-6z" fill="none"/><path d="M765.43 1295.74c-5.52 0-10-4.47-10-10v-19.26c0-5.52-4.47-10-10-10 5.53 0 10-4.48 10-10v-19.26c0-5.53 4.48-10 10-10" stroke="#5e5e5e" stroke-width="3" fill="none"/><use xlink:href="#Q" transform="matrix(1,0,0,1,294.99999999999994,1222.2152308507004) translate(298.4382716049383 19.555555555555557)"/><use xlink:href="#R" transform="matrix(1,0,0,1,294.99999999999994,1222.2152308507004) translate(367.4259259259259 19.555555555555557)"/><use xlink:href="#ag" transform="matrix(1,0,0,1,294.99999999999994,1222.2152308507004) translate(14.148148148148152 47.111111111111114)"/><use xlink:href="#g" transform="matrix(1,0,0,1,294.99999999999994,1222.2152308507004) translate(72.17283950617283 47.111111111111114)"/><use xlink:href="#ah" transform="matrix(1,0,0,1,294.99999999999994,1222.2152308507004) translate(109.20987654320987 47.111111111111114)"/><use xlink:href="#aa" transform="matrix(1,0,0,1,294.99999999999994,1222.2152308507004) translate(190.50617283950618 47.111111111111114)"/><use xlink:href="#ai" transform="matrix(1,0,0,1,294.99999999999994,1222.2152308507004) translate(215.19753086419755 47.111111111111114)"/><use xlink:href="#aj" transform="matrix(1,0,0,1,294.99999999999994,1222.2152308507004) translate(295.38271604938274 47.111111111111114)"/><use xlink:href="#ak" transform="matrix(1,0,0,1,294.99999999999994,1222.2152308507004) translate(332.41975308641975 47.111111111111114)"/><use xlink:href="#al" transform="matrix(1,0,0,1,294.99999999999994,1222.2152308507004) translate(392.85185185185185 47.111111111111114)"/><use xlink:href="#am" transform="matrix(1,0,0,1,294.99999999999994,1222.2152308507004) translate(14.395061728395035 73.77777777777777)"/><use xlink:href="#an" transform="matrix(1,0,0,1,294.99999999999994,1222.2152308507004) translate(45.25925925925923 73.77777777777777)"/><use xlink:href="#ao" transform="matrix(1,0,0,1,294.99999999999994,1222.2152308507004) translate(161.0617283950617 73.77777777777777)"/><use xlink:href="#ap" transform="matrix(1,0,0,1,294.99999999999994,1222.2152308507004) translate(222.7901234567901 73.77777777777777)"/><use xlink:href="#ae" transform="matrix(1,0,0,1,294.99999999999994,1222.2152308507004) translate(323.77777777777777 73.77777777777777)"/><use xlink:href="#aq" transform="matrix(1,0,0,1,294.99999999999994,1222.2152308507004) translate(361.98765432098764 73.77777777777777)"/><path d="M47.72 607.36c0-3.3 2.68-6 6-6h675.7c3.33 0 6 2.7 6 6v68c0 3.32-2.67 6-6 6H53.73c-3.32 0-6-2.68-6-6z" fill="none"/><path d="M735.43 681.36c-5.52 0-10-4.47-10-10v-20c0-5.52-4.47-10-10-10 5.53 0 10-4.47 10-10v-20c0-5.52 4.48-10 10-10" stroke="#5e5e5e" stroke-width="3" fill="none"/><g><use xlink:href="#ar" transform="matrix(1,0,0,1,52.7165354330707,606.3647775746497) translate(434.1851851851852 19.555555555555557)"/><use xlink:href="#as" transform="matrix(1,0,0,1,52.7165354330707,606.3647775746497) translate(529.1111111111111 19.555555555555557)"/><use xlink:href="#at" transform="matrix(1,0,0,1,52.7165354330707,606.3647775746497) translate(29.790123456790184 47.111111111111114)"/><use xlink:href="#au" transform="matrix(1,0,0,1,52.7165354330707,606.3647775746497) translate(121.08641975308647 47.111111111111114)"/><use xlink:href="#av" transform="matrix(1,0,0,1,52.7165354330707,606.3647775746497) translate(217.6913580246914 47.111111111111114)"/><use xlink:href="#aw" transform="matrix(1,0,0,1,52.7165354330707,606.3647775746497) translate(281.70370370370375 47.111111111111114)"/><use xlink:href="#q" transform="matrix(1,0,0,1,52.7165354330707,606.3647775746497) translate(340.90123456790127 47.111111111111114)"/><use xlink:href="#r" transform="matrix(1,0,0,1,52.7165354330707,606.3647775746497) translate(407.5679012345679 47.111111111111114)"/><use xlink:href="#ax" transform="matrix(1,0,0,1,52.7165354330707,606.3647775746497) translate(438.4320987654321 47.111111111111114)"/><use xlink:href="#ay" transform="matrix(1,0,0,1,52.7165354330707,606.3647775746497) translate(463.12345679012344 47.111111111111114)"/><use xlink:href="#az" transform="matrix(1,0,0,1,52.7165354330707,606.3647775746497) translate(481.641975308642 47.111111111111114)"/><use xlink:href="#aA" transform="matrix(1,0,0,1,52.7165354330707,606.3647775746497) translate(580.283950617284 47.111111111111114)"/><use xlink:href="#aB" transform="matrix(1,0,0,1,52.7165354330707,606.3647775746497) translate(13.246913580246996 73.77777777777777)"/><use xlink:href="#ay" transform="matrix(1,0,0,1,52.7165354330707,606.3647775746497) translate(80.96296296296305 73.77777777777777)"/><use xlink:href="#aC" transform="matrix(1,0,0,1,52.7165354330707,606.3647775746497) translate(99.48148148148157 73.77777777777777)"/><use xlink:href="#aD" transform="matrix(1,0,0,1,52.7165354330707,606.3647775746497) translate(201.82716049382725 73.77777777777777)"/><use xlink:href="#X" transform="matrix(1,0,0,1,52.7165354330707,606.3647775746497) translate(264.66666666666674 73.77777777777777)"/><use xlink:href="#aE" transform="matrix(1,0,0,1,52.7165354330707,606.3647775746497) translate(323.86419753086426 73.77777777777777)"/><use xlink:href="#aF" transform="matrix(1,0,0,1,52.7165354330707,606.3647775746497) translate(380.46913580246917 73.77777777777777)"/><use xlink:href="#aa" transform="matrix(1,0,0,1,52.7165354330707,606.3647775746497) translate(422.320987654321 73.77777777777777)"/><use xlink:href="#aG" transform="matrix(1,0,0,1,52.7165354330707,606.3647775746497) translate(447.01234567901236 73.77777777777777)"/><use xlink:href="#aH" transform="matrix(1,0,0,1,52.7165354330707,606.3647775746497) translate(523.4320987654321 73.77777777777777)"/><use xlink:href="#aI" transform="matrix(1,0,0,1,52.7165354330707,606.3647775746497) translate(555.4691358024692 73.77777777777777)"/></g><path d="M1159.86 640.63H1120" stroke="#5e5e5e" stroke-width="2" fill="none"/><path d="M1160.86 641.63h-1.02v-2h1.02z" fill="#5e5e5e"/><path d="M1104.74 640.63L1119 636v9.26z" stroke="#5e5e5e" stroke-width="2" fill="#5e5e5e"/><path d="M831.57 731.6c0-3.32 2.7-6 6-6h195.72c3.3 0 6 2.68 6 6v48c0 3.3-2.7 6-6 6H837.56c-3.3 0-6-2.7-6-6z" stroke="#5e5e5e" stroke-width="3" fill="#b2d6ef"/><g><use xlink:href="#aJ" transform="matrix(1,0,0,1,843.5748031282178,737.594332723949) translate(8.172839506172835 22.27777777777778)"/><use xlink:href="#aK" transform="matrix(1,0,0,1,843.5748031282178,737.594332723949) translate(100.7037037037037 22.27777777777778)"/></g><path d="M935.43 788.1V803" stroke="#5e5e5e" stroke-width="2" fill="none"/><path d="M936.43 788.12h-2v-1.03h2z" fill="#5e5e5e"/><path d="M937.27 816l-6.58-13.48 9.17-1.3z" stroke="#5e5e5e" stroke-width="2" fill="#5e5e5e"/><path d="M932.83 822.1c2.7-1.93 7.07-1.93 9.77 0l102.34 73.02c2.7 1.93 2.7 5.05 0 6.97L942.6 975.1c-2.7 1.93-7.07 1.93-9.77 0L830.5 902.1c-2.7-1.93-2.7-5.05 0-6.98z" stroke="#5e5e5e" stroke-width="3" fill="#b2d6ef"/><g><use xlink:href="#aL" transform="matrix(1,0,0,1,830.6102362834974,823.6076154253503) translate(81.7580864197531 31.787777777777777)"/><use xlink:href="#aM" transform="matrix(1,0,0,1,830.6102362834974,823.6076154253503) translate(51.39388888888889 58.45444444444445)"/><use xlink:href="#aN" transform="matrix(1,0,0,1,830.6102362834974,823.6076154253503) translate(120.40623456790124 58.45444444444445)"/><use xlink:href="#aO" transform="matrix(1,0,0,1,830.6102362834974,823.6076154253503) translate(60.12228395061729 85.1211111111111)"/><use xlink:href="#aP" transform="matrix(1,0,0,1,830.6102362834974,823.6076154253503) translate(134.19635802469136 85.1211111111111)"/><use xlink:href="#aQ" transform="matrix(1,0,0,1,830.6102362834974,823.6076154253503) translate(68.14697530864197 111.78777777777779)"/><use xlink:href="#i" transform="matrix(1,0,0,1,830.6102362834974,823.6076154253503) translate(100.83216049382716 138.45444444444445)"/></g><path d="M544 866.28c19.88 0 36 13.43 36 30s-16.12 30-36 30H436c-19.88 0-36-13.43-36-30s16.12-30 36-30z" stroke="#000" stroke-width="3" fill="#b2d6ef"/><g><use xlink:href="#N" transform="matrix(1,0,0,1,405,871.2809284895686) translate(12.253086419753089 30.27777777777778)"/><use xlink:href="#O" transform="matrix(1,0,0,1,405,871.2809284895686) translate(81.26543209876543 30.27777777777778)"/></g><path d="M826.08 899.6h-8.76v-2h8.76z" fill="#5e5e5e"/><path d="M826.96 897.8l.27 1.8h-1.17v-2h1zM786.7 900.73l-6.53-2.12 6.53-2.1z" fill="#5e5e5e"/><path d="M786.7 897.54l-3.3 1.07 3.3 1.08v2.1l-9.77-3.17 9.77-3.17z" fill="#5e5e5e"/><g><use xlink:href="#j" transform="matrix(1,0,0,1,786.6991020345744,887.9409487588824) translate(0 14.222222222222223)"/></g><path d="M655.43 874.6c0-3.3 2.7-6 6-6h108c3.32 0 6 2.7 6 6v48c0 3.32-2.68 6-6 6h-108c-3.3 0-6-2.68-6-6z" stroke="#5e5e5e" stroke-width="3" fill="#b2d6ef"/><g><use xlink:href="#D" transform="matrix(1,0,0,1,667.4330708661414,880.6076154253503) translate(16.58024691358025 22.27777777777778)"/></g><path d="M652.93 898.6h-53.1" stroke="#5e5e5e" stroke-width="2" fill="none"/><path d="M653.93 899.6h-1.02v-2h1.03z" fill="#5e5e5e"/><path d="M584.58 898.6l14.26-4.63v9.27z" stroke="#5e5e5e" stroke-width="2" fill="#5e5e5e"/><path d="M938.72 988.76h-2V979h2z" fill="#5e5e5e"/><path d="M938.72 978.02v1h-2V978zM937.72 1017.62l-2.45-7.52h4.9z" fill="#5e5e5e"/><path d="M937.72 1020.85l-3.5-10.75h2.1l1.4 4.28 1.4-4.28h2.1z" fill="#5e5e5e"/><g><use xlink:href="#E" transform="matrix(1,0,0,1,925.9140661724248,988.7640190711605) translate(0 14.222222222222223)"/></g><path d="M933.17 1023.92c2.5-2.17 6.58-2.17 9.1 0l72.05 62.16c2.5 2.17 2.5 5.67 0 7.84l-72.06 62.16c-2.5 2.17-6.58 2.17-9.1 0l-72.04-62.16c-2.5-2.17-2.5-5.67 0-7.84z" stroke="#5e5e5e" stroke-width="3" fill="#b2d6ef"/><g><use xlink:href="#aR" transform="matrix(1,0,0,1,861.5748032120318,1025) translate(19.924753086419752 61.78777777777778)"/><use xlink:href="#aO" transform="matrix(1,0,0,1,861.5748032120318,1025) translate(32.79512345679012 88.45444444444445)"/><use xlink:href="#i" transform="matrix(1,0,0,1,861.5748032120318,1025) translate(106.8691975308642 88.45444444444445)"/></g><path d="M938.72 1176.76h-2v-16.6h2z" fill="#5e5e5e"/><path d="M938.43 1159.2l.3-.07v1.04h-2v-1.1zM937.72 1212.48l-4.64-14.27h9.27z" fill="#5e5e5e"/><path d="M937.72 1215.72L932 1198.1h11.44zm-3.26-16.5l3.26 10.02 3.26-10.03z" fill="#5e5e5e"/><g><use xlink:href="#E" transform="matrix(1,0,0,1,925.9140662972683,1176.7634724299462) translate(0 14.222222222222223)"/></g><path d="M805.53 1091h-10.1v-2h10.1zm51.2 0h-27.6v-2h27.6z" fill="#5e5e5e"/><path d="M857.7 1089.88l.23 1.12h-1.23v-2h1.22zM794.44 1094.64l-14.27-4.64 14.27-4.64z" fill="#5e5e5e"/><path d="M795.44 1096l-18.5-6 18.5-6zm-12.03-6l10.04 3.26v-6.52z" fill="#5e5e5e"/><g><use xlink:href="#E" transform="matrix(1,0,0,1,805.5252063419831,1079.333333333331) translate(0 14.222222222222223)"/></g><path d="M655.43 1066c0-3.3 2.7-6 6-6h108c3.32 0 6 2.7 6 6v48c0 3.3-2.68 6-6 6h-108c-3.3 0-6-2.7-6-6z" stroke="#5e5e5e" stroke-width="3" fill="#b2d6ef"/><g><use xlink:href="#aS" transform="matrix(1,0,0,1,667.4330708661414,1072) translate(14.049382716049386 22.27777777777778)"/></g><path d="M652.93 1090H600" stroke="#5e5e5e" stroke-width="2" fill="none"/><path d="M653.93 1091h-1.02v-2h1.03z" fill="#5e5e5e"/><path d="M584.74 1090l14.26-4.64v9.28z" stroke="#5e5e5e" stroke-width="2" fill="#5e5e5e"/><path d="M937.72 683.86v21.73" stroke="#5e5e5e" stroke-width="2" fill="none"/><path d="M938.72 683.9h-2v-1.04h2z" fill="#5e5e5e"/><path d="M937.72 720.86l-4.64-14.27h9.27z" stroke="#5e5e5e" stroke-width="2" fill="#5e5e5e"/><path d="M820 1223.22c0-3.32 2.7-6 6-6h223.43c3.32 0 6 2.68 6 6v66.52c0 3.32-2.68 6-6 6H826c-3.3 0-6-2.68-6-6z" stroke="#5e5e5e" stroke-width="3" fill="#b2d6ef"/><g><use xlink:href="#N" transform="matrix(1,0,0,1,831.9999999999999,1229.2152308507007) translate(33.25308641975309 31.52777777777778)"/><use xlink:href="#O" transform="matrix(1,0,0,1,831.9999999999999,1229.2152308507007) translate(102.26543209876543 31.52777777777778)"/></g><defs><path fill="#333" d="M205 0l-28-72H64L36 0H1l101-248h38L239 0h-34zm-38-99l-47-123c-12 45-31 82-46 123h93" id="aT"/><path fill="#333" d="M84 4C-5 8 30-112 23-190h32v120c0 31 7 50 39 49 72-2 45-101 50-169h31l1 190h-30c-1-10 1-25-2-33-11 22-28 36-60 37" id="aU"/><path fill="#333" d="M59-47c-2 24 18 29 38 22v24C64 9 27 4 27-40v-127H5v-23h24l9-43h21v43h35v23H59v120" id="aV"/><path fill="#333" d="M106-169C34-169 62-67 57 0H25v-261h32l-1 103c12-21 28-36 61-36 89 0 53 116 60 194h-32v-121c2-32-8-49-39-48" id="aW"/><path fill="#333" d="M100-194c62-1 85 37 85 99 1 63-27 99-86 99S16-35 15-95c0-66 28-99 85-99zM99-20c44 1 53-31 53-75 0-43-8-75-51-75s-53 32-53 75 10 74 51 75" id="aX"/><path fill="#333" d="M114-163C36-179 61-72 57 0H25l-1-190h30c1 12-1 29 2 39 6-27 23-49 58-41v29" id="aY"/><g id="a"><use transform="matrix(0.06172839506172839,0,0,0.06172839506172839,0,0)" xlink:href="#aT"/><use transform="matrix(0.06172839506172839,0,0,0.06172839506172839,14.814814814814813,0)" xlink:href="#aU"/><use transform="matrix(0.06172839506172839,0,0,0.06172839506172839,27.160493827160494,0)" xlink:href="#aV"/><use transform="matrix(0.06172839506172839,0,0,0.06172839506172839,33.333333333333336,0)" xlink:href="#aW"/><use transform="matrix(0.06172839506172839,0,0,0.06172839506172839,45.67901234567901,0)" xlink:href="#aX"/><use transform="matrix(0.06172839506172839,0,0,0.06172839506172839,58.02469135802469,0)" xlink:href="#aY"/></g><path fill="#333" d="M135-143c-3-34-86-38-87 0 15 53 115 12 119 90S17 21 10-45l28-5c4 36 97 45 98 0-10-56-113-15-118-90-4-57 82-63 122-42 12 7 21 19 24 35" id="aZ"/><path fill="#333" d="M115-194c53 0 69 39 70 98 0 66-23 100-70 100C84 3 66-7 56-30L54 0H23l1-261h32v101c10-23 28-34 59-34zm-8 174c40 0 45-34 45-75 0-40-5-75-45-74-42 0-51 32-51 76 0 43 10 73 51 73" id="ba"/><path fill="#333" d="M210-169c-67 3-38 105-44 169h-31v-121c0-29-5-50-35-48C34-165 62-65 56 0H25l-1-190h30c1 10-1 24 2 32 10-44 99-50 107 0 11-21 27-35 58-36 85-2 47 119 55 194h-31v-121c0-29-5-49-35-48" id="bb"/><path fill="#333" d="M24-231v-30h32v30H24zM24 0v-190h32V0H24" id="bc"/><g id="b"><use transform="matrix(0.06172839506172839,0,0,0.06172839506172839,0,0)" xlink:href="#aZ"/><use transform="matrix(0.06172839506172839,0,0,0.06172839506172839,11.11111111111111,0)" xlink:href="#aU"/><use transform="matrix(0.06172839506172839,0,0,0.06172839506172839,23.45679012345679,0)" xlink:href="#ba"/><use transform="matrix(0.06172839506172839,0,0,0.06172839506172839,35.80246913580247,0)" xlink:href="#bb"/><use transform="matrix(0.06172839506172839,0,0,0.06172839506172839,54.25925925925925,0)" xlink:href="#bc"/><use transform="matrix(0.06172839506172839,0,0,0.06172839506172839,59.1358024691358,0)" xlink:href="#aV"/><use transform="matrix(0.06172839506172839,0,0,0.06172839506172839,65.30864197530863,0)" xlink:href="#aZ"/></g><path fill="#333" d="M115-194c55 1 70 41 70 98S169 2 115 4C84 4 66-9 55-30l1 105H24l-1-265h31l2 30c10-21 28-34 59-34zm-8 174c40 0 45-34 45-75s-6-73-45-74c-42 0-51 32-51 76 0 43 10 73 51 73" id="bd"/><path fill="#333" d="M141-36C126-15 110 5 73 4 37 3 15-17 15-53c-1-64 63-63 125-63 3-35-9-54-41-54-24 1-41 7-42 31l-33-3c5-37 33-52 76-52 45 0 72 20 72 64v82c-1 20 7 32 28 27v20c-31 9-61-2-59-35zM48-53c0 20 12 33 32 33 41-3 63-29 60-74-43 2-92-5-92 41" id="be"/><path fill="#333" d="M100-194c63 0 86 42 84 106H49c0 40 14 67 53 68 26 1 43-12 49-29l28 8c-11 28-37 45-77 45C44 4 14-33 15-96c1-61 26-98 85-98zm52 81c6-60-76-77-97-28-3 7-6 17-6 28h103" id="bf"/><g id="c"><use transform="matrix(0.06172839506172839,0,0,0.06172839506172839,0,0)" xlink:href="#bd"/><use transform="matrix(0.06172839506172839,0,0,0.06172839506172839,12.345679012345679,0)" xlink:href="#be"/><use transform="matrix(0.06172839506172839,0,0,0.06172839506172839,24.691358024691358,0)" xlink:href="#bd"/><use transform="matrix(0.06172839506172839,0,0,0.06172839506172839,37.03703703703704,0)" xlink:href="#bf"/><use transform="matrix(0.06172839506172839,0,0,0.06172839506172839,49.382716049382715,0)" xlink:href="#aY"/></g><path fill="#333" d="M33 0v-248h34V0H33" id="bg"/><g id="d"><use transform="matrix(0.06172839506172839,0,0,0.06172839506172839,0,0)" xlink:href="#bg"/><use transform="matrix(0.06172839506172839,0,0,0.06172839506172839,6.172839506172839,0)" xlink:href="#aZ"/></g><g id="e"><use transform="matrix(0.06172839506172839,0,0,0.06172839506172839,0,0)" xlink:href="#bd"/><use transform="matrix(0.06172839506172839,0,0,0.06172839506172839,12.345679012345679,0)" xlink:href="#be"/><use transform="matrix(0.06172839506172839,0,0,0.06172839506172839,24.691358024691358,0)" xlink:href="#bd"/><use transform="matrix(0.06172839506172839,0,0,0.06172839506172839,37.03703703703704,0)" xlink:href="#bf"/><use transform="matrix(0.06172839506172839,0,0,0.06172839506172839,49.382716049382715,0)" xlink:href="#aY"/></g><path fill="#333" d="M117-194c89-4 53 116 60 194h-32v-121c0-31-8-49-39-48C34-167 62-67 57 0H25l-1-190h30c1 10-1 24 2 32 11-22 29-35 61-36" id="bh"/><path fill="#333" d="M177-190C167-65 218 103 67 71c-23-6-38-20-44-43l32-5c15 47 100 32 89-28v-30C133-14 115 1 83 1 29 1 15-40 15-95c0-56 16-97 71-98 29-1 48 16 59 35 1-10 0-23 2-32h30zM94-22c36 0 50-32 50-73 0-42-14-75-50-75-39 0-46 34-46 75s6 73 46 73" id="bi"/><g id="f"><use transform="matrix(0.06172839506172839,0,0,0.06172839506172839,0,0)" xlink:href="#bb"/><use transform="matrix(0.06172839506172839,0,0,0.06172839506172839,18.456790123456788,0)" xlink:href="#bf"/><use transform="matrix(0.06172839506172839,0,0,0.06172839506172839,30.80246913580247,0)" xlink:href="#bf"/><use transform="matrix(0.06172839506172839,0,0,0.06172839506172839,43.148148148148145,0)" xlink:href="#aV"/><use transform="matrix(0.06172839506172839,0,0,0.06172839506172839,49.32098765432099,0)" xlink:href="#bc"/><use transform="matrix(0.06172839506172839,0,0,0.06172839506172839,54.19753086419753,0)" xlink:href="#bh"/><use transform="matrix(0.06172839506172839,0,0,0.06172839506172839,66.54320987654322,0)" xlink:href="#bi"/></g><g id="g"><use transform="matrix(0.06172839506172839,0,0,0.06172839506172839,0,0)" xlink:href="#aV"/><use transform="matrix(0.06172839506172839,0,0,0.06172839506172839,6.172839506172839,0)" xlink:href="#aW"/><use transform="matrix(0.06172839506172839,0,0,0.06172839506172839,18.51851851851852,0)" xlink:href="#bf"/></g><path fill="#333" d="M145-31C134-9 116 4 85 4 32 4 16-35 15-94c0-59 17-99 70-100 32-1 48 14 60 33 0-11-1-24 2-32h30l-1 268h-32zM93-21c41 0 51-33 51-76s-8-73-50-73c-40 0-46 35-46 75s5 74 45 74" id="bj"/><g id="h"><use transform="matrix(0.06172839506172839,0,0,0.06172839506172839,0,0)" xlink:href="#aY"/><use transform="matrix(0.06172839506172839,0,0,0.06172839506172839,7.345679012345679,0)" xlink:href="#bf"/><use transform="matrix(0.06172839506172839,0,0,0.06172839506172839,19.691358024691358,0)" xlink:href="#bj"/><use transform="matrix(0.06172839506172839,0,0,0.06172839506172839,32.03703703703704,0)" xlink:href="#aU"/><use transform="matrix(0.06172839506172839,0,0,0.06172839506172839,44.382716049382715,0)" xlink:href="#bc"/><use transform="matrix(0.06172839506172839,0,0,0.06172839506172839,49.25925925925926,0)" xlink:href="#aY"/><use transform="matrix(0.06172839506172839,0,0,0.06172839506172839,56.60493827160494,0)" xlink:href="#bf"/><use transform="matrix(0.06172839506172839,0,0,0.06172839506172839,68.95061728395062,0)" xlink:href="#bb"/><use transform="matrix(0.06172839506172839,0,0,0.06172839506172839,87.4074074074074,0)" xlink:href="#bf"/><use transform="matrix(0.06172839506172839,0,0,0.06172839506172839,99.75308641975309,0)" xlink:href="#bh"/><use transform="matrix(0.06172839506172839,0,0,0.06172839506172839,112.09876543209877,0)" xlink:href="#aV"/><use transform="matrix(0.06172839506172839,0,0,0.06172839506172839,118.27160493827161,0)" xlink:href="#aZ"/></g><path fill="#333" d="M103-251c84 0 111 97 45 133-19 10-37 24-39 52H78c0-63 77-55 77-114 0-30-21-42-52-43-32 0-53 17-56 46l-32-2c7-45 34-72 88-72zM77 0v-35h34V0H77" id="bk"/><use transform="matrix(0.06172839506172839,0,0,0.06172839506172839,0,0)" xlink:href="#bk" id="i"/><path fill="#333" d="M146-102V0H94v-102L6-248h54l60 105 60-105h54" id="bl"/><path fill="#333" d="M185-48c-13 30-37 53-82 52C43 2 14-33 14-96s30-98 90-98c62 0 83 45 84 108H66c0 31 8 55 39 56 18 0 30-7 34-22zm-45-69c5-46-57-63-70-21-2 6-4 13-4 21h74" id="bm"/><path fill="#333" d="M137-138c1-29-70-34-71-4 15 46 118 7 119 86 1 83-164 76-172 9l43-7c4 19 20 25 44 25 33 8 57-30 24-41C81-84 22-81 20-136c-2-80 154-74 161-7" id="bn"/><g id="j"><use transform="matrix(0.04938271604938272,0,0,0.04938271604938272,0,0)" xlink:href="#bl"/><use transform="matrix(0.04938271604938272,0,0,0.04938271604938272,10.864197530864198,0)" xlink:href="#bm"/><use transform="matrix(0.04938271604938272,0,0,0.04938271604938272,20.74074074074074,0)" xlink:href="#bn"/></g><path fill="#333" d="M190 0L58-211 59 0H30v-248h39L202-35l-2-213h31V0h-41" id="bo"/><path fill="#333" d="M24 0v-261h32V0H24" id="bp"/><g id="k"><use transform="matrix(0.06172839506172839,0,0,0.06172839506172839,0,0)" xlink:href="#bo"/><use transform="matrix(0.06172839506172839,0,0,0.06172839506172839,15.987654320987653,0)" xlink:href="#aX"/><use transform="matrix(0.06172839506172839,0,0,0.06172839506172839,28.333333333333332,0)" xlink:href="#aY"/><use transform="matrix(0.06172839506172839,0,0,0.06172839506172839,35.67901234567901,0)" xlink:href="#bb"/><use transform="matrix(0.06172839506172839,0,0,0.06172839506172839,54.1358024691358,0)" xlink:href="#be"/><use transform="matrix(0.06172839506172839,0,0,0.06172839506172839,66.48148148148148,0)" xlink:href="#bp"/></g><path fill="#333" d="M212-179c-10-28-35-45-73-45-59 0-87 40-87 99 0 60 29 101 89 101 43 0 62-24 78-52l27 14C228-24 195 4 139 4 59 4 22-46 18-125c-6-104 99-153 187-111 19 9 31 26 39 46" id="bq"/><path fill="#333" d="M96-169c-40 0-48 33-48 73s9 75 48 75c24 0 41-14 43-38l32 2c-6 37-31 61-74 61-59 0-76-41-82-99-10-93 101-131 147-64 4 7 5 14 7 22l-32 3c-4-21-16-35-41-35" id="br"/><path fill="#333" d="M143 0L79-87 56-68V0H24v-261h32v163l83-92h37l-77 82L181 0h-38" id="bs"/><g id="l"><use transform="matrix(0.06172839506172839,0,0,0.06172839506172839,0,0)" xlink:href="#bq"/><use transform="matrix(0.06172839506172839,0,0,0.06172839506172839,15.987654320987653,0)" xlink:href="#bp"/><use transform="matrix(0.06172839506172839,0,0,0.06172839506172839,20.864197530864196,0)" xlink:href="#bc"/><use transform="matrix(0.06172839506172839,0,0,0.06172839506172839,25.74074074074074,0)" xlink:href="#br"/><use transform="matrix(0.06172839506172839,0,0,0.06172839506172839,36.85185185185185,0)" xlink:href="#bs"/><use transform="matrix(0.06172839506172839,0,0,0.06172839506172839,47.96296296296296,0)" xlink:href="#be"/><use transform="matrix(0.06172839506172839,0,0,0.06172839506172839,60.30864197530864,0)" xlink:href="#ba"/><use transform="matrix(0.06172839506172839,0,0,0.06172839506172839,72.65432098765432,0)" xlink:href="#bp"/><use transform="matrix(0.06172839506172839,0,0,0.06172839506172839,77.53086419753086,0)" xlink:href="#bf"/></g><path fill="#333" d="M185-189c-5-48-123-54-124 2 14 75 158 14 163 119 3 78-121 87-175 55-17-10-28-26-33-46l33-7c5 56 141 63 141-1 0-78-155-14-162-118-5-82 145-84 179-34 5 7 8 16 11 25" id="bt"/><g id="m"><use transform="matrix(0.06172839506172839,0,0,0.06172839506172839,0,0)" xlink:href="#bt"/><use transform="matrix(0.06172839506172839,0,0,0.06172839506172839,14.814814814814813,0)" xlink:href="#bf"/><use transform="matrix(0.06172839506172839,0,0,0.06172839506172839,27.160493827160494,0)" xlink:href="#bp"/><use transform="matrix(0.06172839506172839,0,0,0.06172839506172839,32.03703703703704,0)" xlink:href="#bf"/><use transform="matrix(0.06172839506172839,0,0,0.06172839506172839,44.382716049382715,0)" xlink:href="#br"/><use transform="matrix(0.06172839506172839,0,0,0.06172839506172839,55.49382716049382,0)" xlink:href="#aV"/></g><path fill="#333" d="M195 0l-74-108L45 0H8l94-129-87-119h37l69 98 67-98h37l-84 118L233 0h-38" id="bu"/><use transform="matrix(0.06172839506172839,0,0,0.06172839506172839,0,0)" xlink:href="#bu" id="n"/><path fill="#333" d="M179-190L93 31C79 59 56 82 12 73V49c39 6 53-20 64-50L1-190h34L92-34l54-156h33" id="bv"/><g id="o"><use transform="matrix(0.06172839506172839,0,0,0.06172839506172839,0,0)" xlink:href="#br"/><use transform="matrix(0.06172839506172839,0,0,0.06172839506172839,11.11111111111111,0)" xlink:href="#aX"/><use transform="matrix(0.06172839506172839,0,0,0.06172839506172839,23.45679012345679,0)" xlink:href="#bb"/><use transform="matrix(0.06172839506172839,0,0,0.06172839506172839,41.91358024691358,0)" xlink:href="#bb"/><use transform="matrix(0.06172839506172839,0,0,0.06172839506172839,60.37037037037037,0)" xlink:href="#aU"/><use transform="matrix(0.06172839506172839,0,0,0.06172839506172839,72.71604938271605,0)" xlink:href="#bh"/><use transform="matrix(0.06172839506172839,0,0,0.06172839506172839,85.06172839506173,0)" xlink:href="#bc"/><use transform="matrix(0.06172839506172839,0,0,0.06172839506172839,89.93827160493828,0)" xlink:href="#aV"/><use transform="matrix(0.06172839506172839,0,0,0.06172839506172839,96.11111111111111,0)" xlink:href="#bv"/></g><g id="p"><use transform="matrix(0.06172839506172839,0,0,0.06172839506172839,0,0)" xlink:href="#bb"/><use transform="matrix(0.06172839506172839,0,0,0.06172839506172839,18.456790123456788,0)" xlink:href="#bf"/><use transform="matrix(0.06172839506172839,0,0,0.06172839506172839,30.80246913580247,0)" xlink:href="#bb"/><use transform="matrix(0.06172839506172839,0,0,0.06172839506172839,49.25925925925925,0)" xlink:href="#ba"/><use transform="matrix(0.06172839506172839,0,0,0.06172839506172839,61.60493827160493,0)" xlink:href="#bf"/><use transform="matrix(0.06172839506172839,0,0,0.06172839506172839,73.9506172839506,0)" xlink:href="#aY"/></g><path fill="#333" d="M85-194c31 0 48 13 60 33l-1-100h32l1 261h-30c-2-10 0-23-3-31C134-8 116 4 85 4 32 4 16-35 15-94c0-66 23-100 70-100zm9 24c-40 0-46 34-46 75 0 40 6 74 45 74 42 0 51-32 51-76 0-42-9-74-50-73" id="bw"/><g id="q"><use transform="matrix(0.06172839506172839,0,0,0.06172839506172839,0,0)" xlink:href="#ba"/><use transform="matrix(0.06172839506172839,0,0,0.06172839506172839,12.345679012345679,0)" xlink:href="#be"/><use transform="matrix(0.06172839506172839,0,0,0.06172839506172839,24.691358024691358,0)" xlink:href="#aZ"/><use transform="matrix(0.06172839506172839,0,0,0.06172839506172839,35.80246913580247,0)" xlink:href="#bf"/><use transform="matrix(0.06172839506172839,0,0,0.06172839506172839,48.148148148148145,0)" xlink:href="#bw"/></g><g id="r"><use transform="matrix(0.06172839506172839,0,0,0.06172839506172839,0,0)" xlink:href="#aX"/><use transform="matrix(0.06172839506172839,0,0,0.06172839506172839,12.345679012345679,0)" xlink:href="#bh"/></g><path fill="#333" d="M47-170H22l-4-78h33" id="bx"/><g id="s"><use transform="matrix(0.06172839506172839,0,0,0.06172839506172839,0,0)" xlink:href="#bd"/><use transform="matrix(0.06172839506172839,0,0,0.06172839506172839,12.345679012345679,0)" xlink:href="#be"/><use transform="matrix(0.06172839506172839,0,0,0.06172839506172839,24.691358024691358,0)" xlink:href="#bd"/><use transform="matrix(0.06172839506172839,0,0,0.06172839506172839,37.03703703703704,0)" xlink:href="#bf"/><use transform="matrix(0.06172839506172839,0,0,0.06172839506172839,49.382716049382715,0)" xlink:href="#aY"/><use transform="matrix(0.06172839506172839,0,0,0.06172839506172839,56.72839506172839,0)" xlink:href="#bx"/><use transform="matrix(0.06172839506172839,0,0,0.06172839506172839,60.925925925925924,0)" xlink:href="#aZ"/></g><g id="t"><use transform="matrix(0.06172839506172839,0,0,0.06172839506172839,0,0)" xlink:href="#bw"/><use transform="matrix(0.06172839506172839,0,0,0.06172839506172839,12.345679012345679,0)" xlink:href="#aX"/><use transform="matrix(0.06172839506172839,0,0,0.06172839506172839,24.691358024691358,0)" xlink:href="#bb"/><use transform="matrix(0.06172839506172839,0,0,0.06172839506172839,43.148148148148145,0)" xlink:href="#be"/><use transform="matrix(0.06172839506172839,0,0,0.06172839506172839,55.49382716049382,0)" xlink:href="#bc"/><use transform="matrix(0.06172839506172839,0,0,0.06172839506172839,60.37037037037037,0)" xlink:href="#bh"/><use transform="matrix(0.06172839506172839,0,0,0.06172839506172839,72.71604938271605,0)" xlink:href="#aZ"/></g><g id="u"><use transform="matrix(0.06172839506172839,0,0,0.06172839506172839,0,0)" xlink:href="#bt"/><use transform="matrix(0.06172839506172839,0,0,0.06172839506172839,14.814814814814813,0)" xlink:href="#bf"/><use transform="matrix(0.06172839506172839,0,0,0.06172839506172839,27.160493827160494,0)" xlink:href="#bh"/><use transform="matrix(0.06172839506172839,0,0,0.06172839506172839,39.50617283950617,0)" xlink:href="#bw"/></g><g id="v"><use transform="matrix(0.06172839506172839,0,0,0.06172839506172839,0,0)" xlink:href="#aV"/><use transform="matrix(0.06172839506172839,0,0,0.06172839506172839,6.172839506172839,0)" xlink:href="#aW"/><use transform="matrix(0.06172839506172839,0,0,0.06172839506172839,18.51851851851852,0)" xlink:href="#bf"/><use transform="matrix(0.06172839506172839,0,0,0.06172839506172839,30.864197530864196,0)" xlink:href="#bb"/></g><path fill="#333" d="M30 0v-248h187v28H63v79h144v27H63v87h162V0H30" id="by"/><g id="w"><use transform="matrix(0.06172839506172839,0,0,0.06172839506172839,0,0)" xlink:href="#by"/><use transform="matrix(0.06172839506172839,0,0,0.06172839506172839,14.814814814814813,0)" xlink:href="#be"/><use transform="matrix(0.06172839506172839,0,0,0.06172839506172839,27.160493827160494,0)" xlink:href="#br"/><use transform="matrix(0.06172839506172839,0,0,0.06172839506172839,38.27160493827161,0)" xlink:href="#aW"/></g><path fill="#333" d="M141 0L90-78 38 0H4l68-98-65-92h35l48 74 47-74h35l-64 92 68 98h-35" id="bz"/><g id="x"><use transform="matrix(0.06172839506172839,0,0,0.06172839506172839,0,0)" xlink:href="#bf"/><use transform="matrix(0.06172839506172839,0,0,0.06172839506172839,12.345679012345679,0)" xlink:href="#bz"/><use transform="matrix(0.06172839506172839,0,0,0.06172839506172839,23.45679012345679,0)" xlink:href="#bd"/><use transform="matrix(0.06172839506172839,0,0,0.06172839506172839,35.80246913580247,0)" xlink:href="#bf"/><use transform="matrix(0.06172839506172839,0,0,0.06172839506172839,48.148148148148145,0)" xlink:href="#aY"/><use transform="matrix(0.06172839506172839,0,0,0.06172839506172839,55.49382716049382,0)" xlink:href="#aV"/></g><g id="y"><use transform="matrix(0.06172839506172839,0,0,0.06172839506172839,0,0)" xlink:href="#aZ"/><use transform="matrix(0.06172839506172839,0,0,0.06172839506172839,11.11111111111111,0)" xlink:href="#aU"/><use transform="matrix(0.06172839506172839,0,0,0.06172839506172839,23.45679012345679,0)" xlink:href="#ba"/><use transform="matrix(0.06172839506172839,0,0,0.06172839506172839,35.80246913580247,0)" xlink:href="#bb"/><use transform="matrix(0.06172839506172839,0,0,0.06172839506172839,54.25925925925925,0)" xlink:href="#bc"/><use transform="matrix(0.06172839506172839,0,0,0.06172839506172839,59.1358024691358,0)" xlink:href="#aV"/><use transform="matrix(0.06172839506172839,0,0,0.06172839506172839,65.30864197530863,0)" xlink:href="#aZ"/></g><use transform="matrix(0.06172839506172839,0,0,0.06172839506172839,0,0)" xlink:href="#be" id="z"/><path fill="#333" d="M108 0H70L1-190h34L89-25l56-165h34" id="bA"/><path fill="#333" d="M206 0h-36l-40-164L89 0H53L-1-190h32L70-26l43-164h34l41 164 42-164h31" id="bB"/><g id="A"><use transform="matrix(0.06172839506172839,0,0,0.06172839506172839,0,0)" xlink:href="#aY"/><use transform="matrix(0.06172839506172839,0,0,0.06172839506172839,7.345679012345679,0)" xlink:href="#bf"/><use transform="matrix(0.06172839506172839,0,0,0.06172839506172839,19.691358024691358,0)" xlink:href="#bA"/><use transform="matrix(0.06172839506172839,0,0,0.06172839506172839,30.80246913580247,0)" xlink:href="#bc"/><use transform="matrix(0.06172839506172839,0,0,0.06172839506172839,35.67901234567901,0)" xlink:href="#bf"/><use transform="matrix(0.06172839506172839,0,0,0.06172839506172839,48.02469135802469,0)" xlink:href="#bB"/></g><path fill="#7ab648" d="M240-174c0 40-23 61-54 70L253 0h-59l-57-94H76V0H24v-248c93 4 217-23 216 74zM76-134c48-2 112 12 112-38 0-48-66-32-112-35v73" id="bC"/><path fill="#7ab648" d="M185-48c-13 30-37 53-82 52C43 2 14-33 14-96s30-98 90-98c62 0 83 45 84 108H66c0 31 8 55 39 56 18 0 30-7 34-22zm-45-69c5-46-57-63-70-21-2 6-4 13-4 21h74" id="bD"/><path fill="#7ab648" d="M231 0h-52l-39-155L100 0H48L-1-190h46L77-45c9-52 24-97 36-145h53l37 145 32-145h46" id="bE"/><path fill="#7ab648" d="M133-34C117-15 103 5 69 4 32 3 11-16 11-54c-1-60 55-63 116-61 1-26-3-47-28-47-18 1-26 9-28 27l-52-2c7-38 36-58 82-57s74 22 75 68l1 82c-1 14 12 18 25 15v27c-30 8-71 5-69-32zm-48 3c29 0 43-24 42-57-32 0-66-3-65 30 0 17 8 27 23 27" id="bF"/><path fill="#7ab648" d="M135-150c-39-12-60 13-60 57V0H25l-1-190h47c2 13-1 29 3 40 6-28 27-53 61-41v41" id="bG"/><path fill="#7ab648" d="M88-194c31-1 46 15 58 34l-1-101h50l1 261h-48c-2-10 0-23-3-31C134-8 116 4 84 4 32 4 16-41 15-95c0-56 19-97 73-99zm17 164c33 0 40-30 41-66 1-37-9-64-41-64s-38 30-39 65c0 43 13 65 39 65" id="bH"/><g id="B"><use transform="matrix(0.06172839506172839,0,0,0.06172839506172839,0,0)" xlink:href="#bC"/><use transform="matrix(0.06172839506172839,0,0,0.06172839506172839,15.987654320987653,0)" xlink:href="#bD"/><use transform="matrix(0.06172839506172839,0,0,0.06172839506172839,28.333333333333332,0)" xlink:href="#bE"/><use transform="matrix(0.06172839506172839,0,0,0.06172839506172839,45.61728395061728,0)" xlink:href="#bF"/><use transform="matrix(0.06172839506172839,0,0,0.06172839506172839,57.962962962962955,0)" xlink:href="#bG"/><use transform="matrix(0.06172839506172839,0,0,0.06172839506172839,66.60493827160494,0)" xlink:href="#bH"/></g><path fill="#7ab648" d="M128 0H69L1-190h53L99-40l48-150h52" id="bI"/><path fill="#7ab648" d="M25-224v-37h50v37H25zM25 0v-190h50V0H25" id="bJ"/><path fill="#7ab648" d="M137-138c1-29-70-34-71-4 15 46 118 7 119 86 1 83-164 76-172 9l43-7c4 19 20 25 44 25 33 8 57-30 24-41C81-84 22-81 20-136c-2-80 154-74 161-7" id="bK"/><g id="C"><use transform="matrix(0.06172839506172839,0,0,0.06172839506172839,0,0)" xlink:href="#bG"/><use transform="matrix(0.06172839506172839,0,0,0.06172839506172839,8.641975308641975,0)" xlink:href="#bD"/><use transform="matrix(0.06172839506172839,0,0,0.06172839506172839,20.98765432098765,0)" xlink:href="#bI"/><use transform="matrix(0.06172839506172839,0,0,0.06172839506172839,33.33333333333333,0)" xlink:href="#bJ"/><use transform="matrix(0.06172839506172839,0,0,0.06172839506172839,39.50617283950617,0)" xlink:href="#bD"/><use transform="matrix(0.06172839506172839,0,0,0.06172839506172839,51.85185185185185,0)" xlink:href="#bE"/><use transform="matrix(0.06172839506172839,0,0,0.06172839506172839,69.1358024691358,0)" xlink:href="#bD"/><use transform="matrix(0.06172839506172839,0,0,0.06172839506172839,81.48148148148148,0)" xlink:href="#bG"/><use transform="matrix(0.06172839506172839,0,0,0.06172839506172839,90.12345679012346,0)" xlink:href="#bK"/></g><path fill="#333" d="M233-177c-1 41-23 64-60 70L243 0h-38l-65-103H63V0H30v-248c88 3 205-21 203 71zM63-129c60-2 137 13 137-47 0-61-80-42-137-45v92" id="bL"/><path fill="#333" d="M24-231v-30h32v30H24zM-9 49c24 4 33-6 33-30v-209h32V24c2 40-23 58-65 49V49" id="bM"/><g id="D"><use transform="matrix(0.06172839506172839,0,0,0.06172839506172839,0,0)" xlink:href="#bL"/><use transform="matrix(0.06172839506172839,0,0,0.06172839506172839,15.987654320987653,0)" xlink:href="#bf"/><use transform="matrix(0.06172839506172839,0,0,0.06172839506172839,28.333333333333332,0)" xlink:href="#bM"/><use transform="matrix(0.06172839506172839,0,0,0.06172839506172839,33.20987654320987,0)" xlink:href="#bf"/><use transform="matrix(0.06172839506172839,0,0,0.06172839506172839,45.55555555555555,0)" xlink:href="#br"/><use transform="matrix(0.06172839506172839,0,0,0.06172839506172839,56.66666666666666,0)" xlink:href="#aV"/></g><path fill="#333" d="M175 0L67-191c6 58 2 128 3 191H24v-248h59L193-55c-6-58-2-129-3-193h46V0h-61" id="bN"/><path fill="#333" d="M110-194c64 0 96 36 96 99 0 64-35 99-97 99-61 0-95-36-95-99 0-62 34-99 96-99zm-1 164c35 0 45-28 45-65 0-40-10-65-43-65-34 0-45 26-45 65 0 36 10 65 43 65" id="bO"/><g id="E"><use transform="matrix(0.04938271604938272,0,0,0.04938271604938272,0,0)" xlink:href="#bN"/><use transform="matrix(0.04938271604938272,0,0,0.04938271604938272,12.790123456790125,0)" xlink:href="#bO"/></g><g id="F"><use transform="matrix(0.06172839506172839,0,0,0.06172839506172839,0,0)" xlink:href="#aT"/><use transform="matrix(0.06172839506172839,0,0,0.06172839506172839,14.814814814814813,0)" xlink:href="#aU"/><use transform="matrix(0.06172839506172839,0,0,0.06172839506172839,27.160493827160494,0)" xlink:href="#aV"/><use transform="matrix(0.06172839506172839,0,0,0.06172839506172839,33.333333333333336,0)" xlink:href="#aW"/><use transform="matrix(0.06172839506172839,0,0,0.06172839506172839,45.67901234567901,0)" xlink:href="#aX"/><use transform="matrix(0.06172839506172839,0,0,0.06172839506172839,58.02469135802469,0)" xlink:href="#aY"/><use transform="matrix(0.06172839506172839,0,0,0.06172839506172839,65.37037037037037,0)" xlink:href="#aZ"/></g><g id="G"><use transform="matrix(0.06172839506172839,0,0,0.06172839506172839,0,0)" xlink:href="#aY"/><use transform="matrix(0.06172839506172839,0,0,0.06172839506172839,7.345679012345679,0)" xlink:href="#bf"/><use transform="matrix(0.06172839506172839,0,0,0.06172839506172839,19.691358024691358,0)" xlink:href="#bA"/><use transform="matrix(0.06172839506172839,0,0,0.06172839506172839,30.80246913580247,0)" xlink:href="#bc"/><use transform="matrix(0.06172839506172839,0,0,0.06172839506172839,35.67901234567901,0)" xlink:href="#aZ"/><use transform="matrix(0.06172839506172839,0,0,0.06172839506172839,46.79012345679013,0)" xlink:href="#bf"/></g><g id="H"><use transform="matrix(0.06172839506172839,0,0,0.06172839506172839,0,0)" xlink:href="#be"/><use transform="matrix(0.06172839506172839,0,0,0.06172839506172839,12.345679012345679,0)" xlink:href="#bh"/><use transform="matrix(0.06172839506172839,0,0,0.06172839506172839,24.691358024691358,0)" xlink:href="#bw"/></g><g id="I"><use transform="matrix(0.06172839506172839,0,0,0.06172839506172839,0,0)" xlink:href="#aZ"/><use transform="matrix(0.06172839506172839,0,0,0.06172839506172839,11.11111111111111,0)" xlink:href="#aU"/><use transform="matrix(0.06172839506172839,0,0,0.06172839506172839,23.45679012345679,0)" xlink:href="#ba"/><use transform="matrix(0.06172839506172839,0,0,0.06172839506172839,35.80246913580247,0)" xlink:href="#bb"/><use transform="matrix(0.06172839506172839,0,0,0.06172839506172839,54.25925925925925,0)" xlink:href="#bc"/><use transform="matrix(0.06172839506172839,0,0,0.06172839506172839,59.1358024691358,0)" xlink:href="#aV"/></g><g id="J"><use transform="matrix(0.06172839506172839,0,0,0.06172839506172839,0,0)" xlink:href="#aY"/><use transform="matrix(0.06172839506172839,0,0,0.06172839506172839,7.345679012345679,0)" xlink:href="#bf"/><use transform="matrix(0.06172839506172839,0,0,0.06172839506172839,19.691358024691358,0)" xlink:href="#bA"/><use transform="matrix(0.06172839506172839,0,0,0.06172839506172839,30.80246913580247,0)" xlink:href="#bc"/><use transform="matrix(0.06172839506172839,0,0,0.06172839506172839,35.67901234567901,0)" xlink:href="#aZ"/><use transform="matrix(0.06172839506172839,0,0,0.06172839506172839,46.79012345679013,0)" xlink:href="#bf"/><use transform="matrix(0.06172839506172839,0,0,0.06172839506172839,59.135802469135804,0)" xlink:href="#bw"/></g><path fill="#333" d="M140-251c81 0 123 46 123 126C263-46 219 4 140 4 59 4 17-45 17-125s42-126 123-126zm0 227c63 0 89-41 89-101s-29-99-89-99c-61 0-89 39-89 99S79-25 140-24" id="bP"/><g id="K"><use transform="matrix(0.06172839506172839,0,0,0.06172839506172839,0,0)" xlink:href="#bP"/><use transform="matrix(0.06172839506172839,0,0,0.06172839506172839,17.28395061728395,0)" xlink:href="#aY"/><use transform="matrix(0.06172839506172839,0,0,0.06172839506172839,24.629629629629626,0)" xlink:href="#bc"/><use transform="matrix(0.06172839506172839,0,0,0.06172839506172839,29.50617283950617,0)" xlink:href="#bi"/><use transform="matrix(0.06172839506172839,0,0,0.06172839506172839,41.85185185185185,0)" xlink:href="#bc"/><use transform="matrix(0.06172839506172839,0,0,0.06172839506172839,46.72839506172839,0)" xlink:href="#bh"/><use transform="matrix(0.06172839506172839,0,0,0.06172839506172839,59.07407407407407,0)" xlink:href="#be"/><use transform="matrix(0.06172839506172839,0,0,0.06172839506172839,71.41975308641975,0)" xlink:href="#bp"/></g><g id="L"><use transform="matrix(0.06172839506172839,0,0,0.06172839506172839,0,0)" xlink:href="#aY"/><use transform="matrix(0.06172839506172839,0,0,0.06172839506172839,7.345679012345679,0)" xlink:href="#bf"/><use transform="matrix(0.06172839506172839,0,0,0.06172839506172839,19.691358024691358,0)" xlink:href="#bA"/><use transform="matrix(0.06172839506172839,0,0,0.06172839506172839,30.80246913580247,0)" xlink:href="#bc"/><use transform="matrix(0.06172839506172839,0,0,0.06172839506172839,35.67901234567901,0)" xlink:href="#bf"/><use transform="matrix(0.06172839506172839,0,0,0.06172839506172839,48.02469135802469,0)" xlink:href="#bB"/><use transform="matrix(0.06172839506172839,0,0,0.06172839506172839,64.01234567901234,0)" xlink:href="#bf"/><use transform="matrix(0.06172839506172839,0,0,0.06172839506172839,76.35802469135803,0)" xlink:href="#aY"/><use transform="matrix(0.06172839506172839,0,0,0.06172839506172839,83.70370370370371,0)" xlink:href="#aZ"/></g><path fill="#333" d="M16-82v-28h88v28H16" id="bQ"/><path fill="#333" d="M33 0v-38h34V0H33" id="bR"/><g id="M"><use transform="matrix(0.06172839506172839,0,0,0.06172839506172839,0,0)" xlink:href="#aY"/><use transform="matrix(0.06172839506172839,0,0,0.06172839506172839,7.345679012345679,0)" xlink:href="#bf"/><use transform="matrix(0.06172839506172839,0,0,0.06172839506172839,19.691358024691358,0)" xlink:href="#bQ"/><use transform="matrix(0.06172839506172839,0,0,0.06172839506172839,27.037037037037038,0)" xlink:href="#bf"/><use transform="matrix(0.06172839506172839,0,0,0.06172839506172839,39.382716049382715,0)" xlink:href="#bA"/><use transform="matrix(0.06172839506172839,0,0,0.06172839506172839,50.49382716049382,0)" xlink:href="#be"/><use transform="matrix(0.06172839506172839,0,0,0.06172839506172839,62.8395061728395,0)" xlink:href="#bp"/><use transform="matrix(0.06172839506172839,0,0,0.06172839506172839,67.71604938271604,0)" xlink:href="#aU"/><use transform="matrix(0.06172839506172839,0,0,0.06172839506172839,80.06172839506172,0)" xlink:href="#be"/><use transform="matrix(0.06172839506172839,0,0,0.06172839506172839,92.4074074074074,0)" xlink:href="#aV"/><use transform="matrix(0.06172839506172839,0,0,0.06172839506172839,98.58024691358024,0)" xlink:href="#bf"/><use transform="matrix(0.06172839506172839,0,0,0.06172839506172839,110.92592592592592,0)" xlink:href="#bR"/></g><path fill="#333" d="M101-234c-31-9-42 10-38 44h38v23H63V0H32v-167H5v-23h27c-7-52 17-82 69-68v24" id="bS"/><g id="N"><use transform="matrix(0.06172839506172839,0,0,0.06172839506172839,0,0)" xlink:href="#bg"/><use transform="matrix(0.06172839506172839,0,0,0.06172839506172839,6.172839506172839,0)" xlink:href="#bh"/><use transform="matrix(0.06172839506172839,0,0,0.06172839506172839,18.51851851851852,0)" xlink:href="#bS"/><use transform="matrix(0.06172839506172839,0,0,0.06172839506172839,24.691358024691358,0)" xlink:href="#aX"/><use transform="matrix(0.06172839506172839,0,0,0.06172839506172839,37.03703703703704,0)" xlink:href="#aY"/><use transform="matrix(0.06172839506172839,0,0,0.06172839506172839,44.382716049382715,0)" xlink:href="#bb"/></g><g id="O"><use transform="matrix(0.06172839506172839,0,0,0.06172839506172839,0,0)" xlink:href="#aT"/><use transform="matrix(0.06172839506172839,0,0,0.06172839506172839,14.814814814814813,0)" xlink:href="#aU"/><use transform="matrix(0.06172839506172839,0,0,0.06172839506172839,27.160493827160494,0)" xlink:href="#aV"/><use transform="matrix(0.06172839506172839,0,0,0.06172839506172839,33.333333333333336,0)" xlink:href="#aW"/><use transform="matrix(0.06172839506172839,0,0,0.06172839506172839,45.67901234567901,0)" xlink:href="#aX"/><use transform="matrix(0.06172839506172839,0,0,0.06172839506172839,58.02469135802469,0)" xlink:href="#aY"/><use transform="matrix(0.06172839506172839,0,0,0.06172839506172839,65.37037037037037,0)" xlink:href="#aZ"/></g><path fill="#333" d="M127-220V0H93v-220H8v-28h204v28h-85" id="bT"/><g id="P"><use transform="matrix(0.06172839506172839,0,0,0.06172839506172839,0,0)" xlink:href="#bT"/><use transform="matrix(0.06172839506172839,0,0,0.06172839506172839,11.049382716049381,0)" xlink:href="#bf"/><use transform="matrix(0.06172839506172839,0,0,0.06172839506172839,23.39506172839506,0)" xlink:href="#aY"/><use transform="matrix(0.06172839506172839,0,0,0.06172839506172839,30.74074074074074,0)" xlink:href="#bb"/><use transform="matrix(0.06172839506172839,0,0,0.06172839506172839,49.19753086419753,0)" xlink:href="#bc"/><use transform="matrix(0.06172839506172839,0,0,0.06172839506172839,54.074074074074076,0)" xlink:href="#bh"/><use transform="matrix(0.06172839506172839,0,0,0.06172839506172839,66.41975308641976,0)" xlink:href="#be"/><use transform="matrix(0.06172839506172839,0,0,0.06172839506172839,78.76543209876544,0)" xlink:href="#aV"/><use transform="matrix(0.06172839506172839,0,0,0.06172839506172839,84.93827160493828,0)" xlink:href="#aX"/><use transform="matrix(0.06172839506172839,0,0,0.06172839506172839,97.28395061728396,0)" xlink:href="#aY"/></g><path fill="#c92d39" d="M199 0l-22-63H83L61 0H9l90-248h61L250 0h-51zm-33-102l-36-108c-10 38-24 72-36 108h72" id="bU"/><path fill="#c92d39" d="M135-194c87-1 58 113 63 194h-50c-7-57 23-157-34-157-59 0-34 97-39 157H25l-1-190h47c2 12-1 28 3 38 12-26 28-41 61-42" id="bV"/><path fill="#c92d39" d="M110-194c64 0 96 36 96 99 0 64-35 99-97 99-61 0-95-36-95-99 0-62 34-99 96-99zm-1 164c35 0 45-28 45-65 0-40-10-65-43-65-34 0-45 26-45 65 0 36 10 65 43 65" id="bW"/><g id="Q"><use transform="matrix(0.06790123456790123,0,0,0.06790123456790123,0,0)" xlink:href="#bU"/><use transform="matrix(0.06790123456790123,0,0,0.06790123456790123,17.586419753086417,0)" xlink:href="#bV"/><use transform="matrix(0.06790123456790123,0,0,0.06790123456790123,32.456790123456784,0)" xlink:href="#bW"/><use transform="matrix(0.06790123456790123,0,0,0.06790123456790123,47.32716049382715,0)" xlink:href="#bV"/></g><path fill="#c92d39" d="M25-224v-37h50v37H25zM25 0v-190h50V0H25" id="bX"/><path fill="#c92d39" d="M137-138c1-29-70-34-71-4 15 46 118 7 119 86 1 83-164 76-172 9l43-7c4 19 20 25 44 25 33 8 57-30 24-41C81-84 22-81 20-136c-2-80 154-74 161-7" id="bY"/><path fill="#c92d39" d="M85 4C-2 5 27-109 22-190h50c7 57-23 150 33 157 60-5 35-97 40-157h50l1 190h-47c-2-12 1-28-3-38-12 25-28 42-61 42" id="bZ"/><path fill="#c92d39" d="M185-48c-13 30-37 53-82 52C43 2 14-33 14-96s30-98 90-98c62 0 83 45 84 108H66c0 31 8 55 39 56 18 0 30-7 34-22zm-45-69c5-46-57-63-70-21-2 6-4 13-4 21h74" id="ca"/><path fill="#333" d="M33-154v-36h34v36H33zM33 0v-36h34V0H33" id="cb"/><g id="R"><use transform="matrix(0.06790123456790123,0,0,0.06790123456790123,0,0)" xlink:href="#bX"/><use transform="matrix(0.06790123456790123,0,0,0.06790123456790123,6.790123456790123,0)" xlink:href="#bY"/><use transform="matrix(0.06790123456790123,0,0,0.06790123456790123,20.37037037037037,0)" xlink:href="#bY"/><use transform="matrix(0.06790123456790123,0,0,0.06790123456790123,33.95061728395062,0)" xlink:href="#bZ"/><use transform="matrix(0.06790123456790123,0,0,0.06790123456790123,48.82098765432099,0)" xlink:href="#ca"/><use transform="matrix(0.06172839506172839,0,0,0.06172839506172839,62.401234567901234,0)" xlink:href="#cb"/></g><g id="S"><use transform="matrix(0.06172839506172839,0,0,0.06172839506172839,0,0)" xlink:href="#bg"/><use transform="matrix(0.06172839506172839,0,0,0.06172839506172839,6.172839506172839,0)" xlink:href="#bS"/></g><g id="T"><use transform="matrix(0.06172839506172839,0,0,0.06172839506172839,0,0)" xlink:href="#bw"/><use transform="matrix(0.06172839506172839,0,0,0.06172839506172839,12.345679012345679,0)" xlink:href="#aX"/><use transform="matrix(0.06172839506172839,0,0,0.06172839506172839,24.691358024691358,0)" xlink:href="#bb"/><use transform="matrix(0.06172839506172839,0,0,0.06172839506172839,43.148148148148145,0)" xlink:href="#be"/><use transform="matrix(0.06172839506172839,0,0,0.06172839506172839,55.49382716049382,0)" xlink:href="#bc"/><use transform="matrix(0.06172839506172839,0,0,0.06172839506172839,60.37037037037037,0)" xlink:href="#bh"/><use transform="matrix(0.06172839506172839,0,0,0.06172839506172839,72.71604938271605,0)" xlink:href="#bx"/><use transform="matrix(0.06172839506172839,0,0,0.06172839506172839,76.91358024691358,0)" xlink:href="#aZ"/></g><g id="U"><use transform="matrix(0.06172839506172839,0,0,0.06172839506172839,0,0)" xlink:href="#aV"/><use transform="matrix(0.06172839506172839,0,0,0.06172839506172839,6.172839506172839,0)" xlink:href="#aX"/><use transform="matrix(0.06172839506172839,0,0,0.06172839506172839,18.51851851851852,0)" xlink:href="#aX"/></g><g id="V"><use transform="matrix(0.06172839506172839,0,0,0.06172839506172839,0,0)" xlink:href="#aZ"/><use transform="matrix(0.06172839506172839,0,0,0.06172839506172839,11.11111111111111,0)" xlink:href="#bb"/><use transform="matrix(0.06172839506172839,0,0,0.06172839506172839,29.5679012345679,0)" xlink:href="#be"/><use transform="matrix(0.06172839506172839,0,0,0.06172839506172839,41.913580246913575,0)" xlink:href="#bp"/><use transform="matrix(0.06172839506172839,0,0,0.06172839506172839,46.79012345679012,0)" xlink:href="#bp"/></g><g id="W"><use transform="matrix(0.06172839506172839,0,0,0.06172839506172839,0,0)" xlink:href="#bc"/><use transform="matrix(0.06172839506172839,0,0,0.06172839506172839,4.876543209876543,0)" xlink:href="#aV"/></g><g id="X"><use transform="matrix(0.06172839506172839,0,0,0.06172839506172839,0,0)" xlink:href="#br"/><use transform="matrix(0.06172839506172839,0,0,0.06172839506172839,11.11111111111111,0)" xlink:href="#aX"/><use transform="matrix(0.06172839506172839,0,0,0.06172839506172839,23.45679012345679,0)" xlink:href="#aU"/><use transform="matrix(0.06172839506172839,0,0,0.06172839506172839,35.80246913580247,0)" xlink:href="#bp"/><use transform="matrix(0.06172839506172839,0,0,0.06172839506172839,40.67901234567901,0)" xlink:href="#bw"/></g><g id="Y"><use transform="matrix(0.06172839506172839,0,0,0.06172839506172839,0,0)" xlink:href="#ba"/><use transform="matrix(0.06172839506172839,0,0,0.06172839506172839,12.345679012345679,0)" xlink:href="#bf"/></g><g id="Z"><use transform="matrix(0.06172839506172839,0,0,0.06172839506172839,0,0)" xlink:href="#bf"/><use transform="matrix(0.06172839506172839,0,0,0.06172839506172839,12.345679012345679,0)" xlink:href="#be"/><use transform="matrix(0.06172839506172839,0,0,0.06172839506172839,24.691358024691358,0)" xlink:href="#aZ"/><use transform="matrix(0.06172839506172839,0,0,0.06172839506172839,35.80246913580247,0)" xlink:href="#bv"/></g><g id="aa"><use transform="matrix(0.06172839506172839,0,0,0.06172839506172839,0,0)" xlink:href="#aV"/><use transform="matrix(0.06172839506172839,0,0,0.06172839506172839,6.172839506172839,0)" xlink:href="#aX"/></g><g id="ab"><use transform="matrix(0.06172839506172839,0,0,0.06172839506172839,0,0)" xlink:href="#bS"/><use transform="matrix(0.06172839506172839,0,0,0.06172839506172839,6.172839506172839,0)" xlink:href="#bc"/><use transform="matrix(0.06172839506172839,0,0,0.06172839506172839,11.049382716049383,0)" xlink:href="#bh"/><use transform="matrix(0.06172839506172839,0,0,0.06172839506172839,23.395061728395063,0)" xlink:href="#bw"/></g><g id="ac"><use transform="matrix(0.06172839506172839,0,0,0.06172839506172839,0,0)" xlink:href="#aX"/><use transform="matrix(0.06172839506172839,0,0,0.06172839506172839,12.345679012345679,0)" xlink:href="#aU"/><use transform="matrix(0.06172839506172839,0,0,0.06172839506172839,24.691358024691358,0)" xlink:href="#aV"/></g><g id="ad"><use transform="matrix(0.06172839506172839,0,0,0.06172839506172839,0,0)" xlink:href="#bB"/><use transform="matrix(0.06172839506172839,0,0,0.06172839506172839,15.987654320987653,0)" xlink:href="#aW"/><use transform="matrix(0.06172839506172839,0,0,0.06172839506172839,28.333333333333332,0)" xlink:href="#aX"/></g><g id="ae"><use transform="matrix(0.06172839506172839,0,0,0.06172839506172839,0,0)" xlink:href="#be"/><use transform="matrix(0.06172839506172839,0,0,0.06172839506172839,12.345679012345679,0)" xlink:href="#aY"/><use transform="matrix(0.06172839506172839,0,0,0.06172839506172839,19.691358024691358,0)" xlink:href="#bf"/></g><g id="af"><use transform="matrix(0.06172839506172839,0,0,0.06172839506172839,0,0)" xlink:href="#aY"/><use transform="matrix(0.06172839506172839,0,0,0.06172839506172839,7.345679012345679,0)" xlink:href="#bf"/><use transform="matrix(0.06172839506172839,0,0,0.06172839506172839,19.691358024691358,0)" xlink:href="#bA"/><use transform="matrix(0.06172839506172839,0,0,0.06172839506172839,30.80246913580247,0)" xlink:href="#bc"/><use transform="matrix(0.06172839506172839,0,0,0.06172839506172839,35.67901234567901,0)" xlink:href="#bf"/><use transform="matrix(0.06172839506172839,0,0,0.06172839506172839,48.02469135802469,0)" xlink:href="#bB"/><use transform="matrix(0.06172839506172839,0,0,0.06172839506172839,64.01234567901234,0)" xlink:href="#bf"/><use transform="matrix(0.06172839506172839,0,0,0.06172839506172839,76.35802469135803,0)" xlink:href="#aY"/><use transform="matrix(0.06172839506172839,0,0,0.06172839506172839,83.70370370370371,0)" xlink:href="#aZ"/></g><g id="ag"><use transform="matrix(0.06172839506172839,0,0,0.06172839506172839,0,0)" xlink:href="#bt"/><use transform="matrix(0.06172839506172839,0,0,0.06172839506172839,14.814814814814813,0)" xlink:href="#bf"/><use transform="matrix(0.06172839506172839,0,0,0.06172839506172839,27.160493827160494,0)" xlink:href="#bh"/><use transform="matrix(0.06172839506172839,0,0,0.06172839506172839,39.50617283950617,0)" xlink:href="#bw"/></g><g id="ah"><use transform="matrix(0.06172839506172839,0,0,0.06172839506172839,0,0)" xlink:href="#aY"/><use transform="matrix(0.06172839506172839,0,0,0.06172839506172839,7.345679012345679,0)" xlink:href="#bf"/><use transform="matrix(0.06172839506172839,0,0,0.06172839506172839,19.691358024691358,0)" xlink:href="#bA"/><use transform="matrix(0.06172839506172839,0,0,0.06172839506172839,30.80246913580247,0)" xlink:href="#bc"/><use transform="matrix(0.06172839506172839,0,0,0.06172839506172839,35.67901234567901,0)" xlink:href="#bf"/><use transform="matrix(0.06172839506172839,0,0,0.06172839506172839,48.02469135802469,0)" xlink:href="#bB"/><use transform="matrix(0.06172839506172839,0,0,0.06172839506172839,64.01234567901234,0)" xlink:href="#aZ"/></g><g id="ai"><use transform="matrix(0.06172839506172839,0,0,0.06172839506172839,0,0)" xlink:href="#be"/><use transform="matrix(0.06172839506172839,0,0,0.06172839506172839,12.345679012345679,0)" xlink:href="#aU"/><use transform="matrix(0.06172839506172839,0,0,0.06172839506172839,24.691358024691358,0)" xlink:href="#aV"/><use transform="matrix(0.06172839506172839,0,0,0.06172839506172839,30.864197530864196,0)" xlink:href="#aW"/><use transform="matrix(0.06172839506172839,0,0,0.06172839506172839,43.20987654320987,0)" xlink:href="#aX"/><use transform="matrix(0.06172839506172839,0,0,0.06172839506172839,55.55555555555555,0)" xlink:href="#aY"/><use transform="matrix(0.06172839506172839,0,0,0.06172839506172839,62.90123456790123,0)" xlink:href="#aZ"/></g><g id="aj"><use transform="matrix(0.06172839506172839,0,0,0.06172839506172839,0,0)" xlink:href="#ba"/><use transform="matrix(0.06172839506172839,0,0,0.06172839506172839,12.345679012345679,0)" xlink:href="#aU"/><use transform="matrix(0.06172839506172839,0,0,0.06172839506172839,24.691358024691358,0)" xlink:href="#aV"/></g><g id="ak"><use transform="matrix(0.06172839506172839,0,0,0.06172839506172839,0,0)" xlink:href="#bb"/><use transform="matrix(0.06172839506172839,0,0,0.06172839506172839,18.456790123456788,0)" xlink:href="#be"/><use transform="matrix(0.06172839506172839,0,0,0.06172839506172839,30.80246913580247,0)" xlink:href="#bs"/><use transform="matrix(0.06172839506172839,0,0,0.06172839506172839,41.91358024691358,0)" xlink:href="#bf"/></g><g id="al"><use transform="matrix(0.06172839506172839,0,0,0.06172839506172839,0,0)" xlink:href="#aZ"/><use transform="matrix(0.06172839506172839,0,0,0.06172839506172839,11.11111111111111,0)" xlink:href="#aU"/><use transform="matrix(0.06172839506172839,0,0,0.06172839506172839,23.45679012345679,0)" xlink:href="#aY"/><use transform="matrix(0.06172839506172839,0,0,0.06172839506172839,30.80246913580247,0)" xlink:href="#bf"/></g><g id="am"><use transform="matrix(0.06172839506172839,0,0,0.06172839506172839,0,0)" xlink:href="#bh"/><use transform="matrix(0.06172839506172839,0,0,0.06172839506172839,12.345679012345679,0)" xlink:href="#aX"/></g><g id="an"><use transform="matrix(0.06172839506172839,0,0,0.06172839506172839,0,0)" xlink:href="#bc"/><use transform="matrix(0.06172839506172839,0,0,0.06172839506172839,4.876543209876543,0)" xlink:href="#bh"/><use transform="matrix(0.06172839506172839,0,0,0.06172839506172839,17.22222222222222,0)" xlink:href="#bS"/><use transform="matrix(0.06172839506172839,0,0,0.06172839506172839,23.39506172839506,0)" xlink:href="#aX"/><use transform="matrix(0.06172839506172839,0,0,0.06172839506172839,35.74074074074074,0)" xlink:href="#aY"/><use transform="matrix(0.06172839506172839,0,0,0.06172839506172839,43.08641975308642,0)" xlink:href="#bb"/><use transform="matrix(0.06172839506172839,0,0,0.06172839506172839,61.5432098765432,0)" xlink:href="#be"/><use transform="matrix(0.06172839506172839,0,0,0.06172839506172839,73.88888888888889,0)" xlink:href="#aV"/><use transform="matrix(0.06172839506172839,0,0,0.06172839506172839,80.06172839506172,0)" xlink:href="#bc"/><use transform="matrix(0.06172839506172839,0,0,0.06172839506172839,84.93827160493827,0)" xlink:href="#aX"/><use transform="matrix(0.06172839506172839,0,0,0.06172839506172839,97.28395061728395,0)" xlink:href="#bh"/></g><g id="ao"><use transform="matrix(0.06172839506172839,0,0,0.06172839506172839,0,0)" xlink:href="#be"/><use transform="matrix(0.06172839506172839,0,0,0.06172839506172839,12.345679012345679,0)" xlink:href="#ba"/><use transform="matrix(0.06172839506172839,0,0,0.06172839506172839,24.691358024691358,0)" xlink:href="#aX"/><use transform="matrix(0.06172839506172839,0,0,0.06172839506172839,37.03703703703704,0)" xlink:href="#aU"/><use transform="matrix(0.06172839506172839,0,0,0.06172839506172839,49.382716049382715,0)" xlink:href="#aV"/></g><g id="ap"><use transform="matrix(0.06172839506172839,0,0,0.06172839506172839,0,0)" xlink:href="#aY"/><use transform="matrix(0.06172839506172839,0,0,0.06172839506172839,7.345679012345679,0)" xlink:href="#bf"/><use transform="matrix(0.06172839506172839,0,0,0.06172839506172839,19.691358024691358,0)" xlink:href="#bA"/><use transform="matrix(0.06172839506172839,0,0,0.06172839506172839,30.80246913580247,0)" xlink:href="#bc"/><use transform="matrix(0.06172839506172839,0,0,0.06172839506172839,35.67901234567901,0)" xlink:href="#bf"/><use transform="matrix(0.06172839506172839,0,0,0.06172839506172839,48.02469135802469,0)" xlink:href="#bB"/><use transform="matrix(0.06172839506172839,0,0,0.06172839506172839,64.01234567901234,0)" xlink:href="#bf"/><use transform="matrix(0.06172839506172839,0,0,0.06172839506172839,76.35802469135803,0)" xlink:href="#aY"/><use transform="matrix(0.06172839506172839,0,0,0.06172839506172839,83.70370370370371,0)" xlink:href="#aZ"/></g><g id="aq"><use transform="matrix(0.06172839506172839,0,0,0.06172839506172839,0,0)" xlink:href="#bd"/><use transform="matrix(0.06172839506172839,0,0,0.06172839506172839,12.345679012345679,0)" xlink:href="#aY"/><use transform="matrix(0.06172839506172839,0,0,0.06172839506172839,19.691358024691358,0)" xlink:href="#bf"/><use transform="matrix(0.06172839506172839,0,0,0.06172839506172839,32.03703703703704,0)" xlink:href="#aZ"/><use transform="matrix(0.06172839506172839,0,0,0.06172839506172839,43.14814814814815,0)" xlink:href="#bf"/><use transform="matrix(0.06172839506172839,0,0,0.06172839506172839,55.49382716049383,0)" xlink:href="#bh"/><use transform="matrix(0.06172839506172839,0,0,0.06172839506172839,67.8395061728395,0)" xlink:href="#aV"/></g><g id="ar"><use transform="matrix(0.06790123456790123,0,0,0.06790123456790123,0,0)" xlink:href="#bC"/><use transform="matrix(0.06790123456790123,0,0,0.06790123456790123,17.586419753086417,0)" xlink:href="#bD"/><use transform="matrix(0.06790123456790123,0,0,0.06790123456790123,31.166666666666664,0)" xlink:href="#bE"/><use transform="matrix(0.06790123456790123,0,0,0.06790123456790123,50.17901234567901,0)" xlink:href="#bF"/><use transform="matrix(0.06790123456790123,0,0,0.06790123456790123,63.75925925925925,0)" xlink:href="#bG"/><use transform="matrix(0.06790123456790123,0,0,0.06790123456790123,73.26543209876543,0)" xlink:href="#bH"/></g><g id="as"><use transform="matrix(0.06790123456790123,0,0,0.06790123456790123,0,0)" xlink:href="#bG"/><use transform="matrix(0.06790123456790123,0,0,0.06790123456790123,9.506172839506172,0)" xlink:href="#bD"/><use transform="matrix(0.06790123456790123,0,0,0.06790123456790123,23.086419753086417,0)" xlink:href="#bI"/><use transform="matrix(0.06790123456790123,0,0,0.06790123456790123,36.666666666666664,0)" xlink:href="#bJ"/><use transform="matrix(0.06790123456790123,0,0,0.06790123456790123,43.456790123456784,0)" xlink:href="#bD"/><use transform="matrix(0.06790123456790123,0,0,0.06790123456790123,57.03703703703703,0)" xlink:href="#bE"/><use transform="matrix(0.06790123456790123,0,0,0.06790123456790123,76.04938271604938,0)" xlink:href="#bD"/><use transform="matrix(0.06790123456790123,0,0,0.06790123456790123,89.62962962962962,0)" xlink:href="#bG"/><use transform="matrix(0.06790123456790123,0,0,0.06790123456790123,99.1358024691358,0)" xlink:href="#bK"/><use transform="matrix(0.06172839506172839,0,0,0.06172839506172839,112.71604938271605,0)" xlink:href="#cb"/></g><g id="at"><use transform="matrix(0.06172839506172839,0,0,0.06172839506172839,0,0)" xlink:href="#bg"/><use transform="matrix(0.06172839506172839,0,0,0.06172839506172839,6.172839506172839,0)" xlink:href="#bh"/><use transform="matrix(0.06172839506172839,0,0,0.06172839506172839,18.51851851851852,0)" xlink:href="#br"/><use transform="matrix(0.06172839506172839,0,0,0.06172839506172839,29.62962962962963,0)" xlink:href="#aY"/><use transform="matrix(0.06172839506172839,0,0,0.06172839506172839,36.97530864197531,0)" xlink:href="#bf"/><use transform="matrix(0.06172839506172839,0,0,0.06172839506172839,49.32098765432099,0)" xlink:href="#be"/><use transform="matrix(0.06172839506172839,0,0,0.06172839506172839,61.666666666666664,0)" xlink:href="#aZ"/><use transform="matrix(0.06172839506172839,0,0,0.06172839506172839,72.77777777777777,0)" xlink:href="#bf"/></g><g id="au"><use transform="matrix(0.06172839506172839,0,0,0.06172839506172839,0,0)" xlink:href="#aY"/><use transform="matrix(0.06172839506172839,0,0,0.06172839506172839,7.345679012345679,0)" xlink:href="#bf"/><use transform="matrix(0.06172839506172839,0,0,0.06172839506172839,19.691358024691358,0)" xlink:href="#bA"/><use transform="matrix(0.06172839506172839,0,0,0.06172839506172839,30.80246913580247,0)" xlink:href="#bc"/><use transform="matrix(0.06172839506172839,0,0,0.06172839506172839,35.67901234567901,0)" xlink:href="#bf"/><use transform="matrix(0.06172839506172839,0,0,0.06172839506172839,48.02469135802469,0)" xlink:href="#bB"/><use transform="matrix(0.06172839506172839,0,0,0.06172839506172839,64.01234567901234,0)" xlink:href="#aZ"/><use transform="matrix(0.06172839506172839,0,0,0.06172839506172839,75.12345679012346,0)" xlink:href="#bx"/><use transform="matrix(0.06172839506172839,0,0,0.06172839506172839,79.32098765432099,0)" xlink:href="#aZ"/></g><path fill="#333" d="M77-211l-58-49v-5h36c12 19 30 32 38 54H77" id="cc"/><g id="av"><use transform="matrix(0.06172839506172839,0,0,0.06172839506172839,0,0)" xlink:href="#cc"/><use transform="matrix(0.06172839506172839,0,0,0.06172839506172839,7.345679012345679,0)" xlink:href="#aV"/><use transform="matrix(0.06172839506172839,0,0,0.06172839506172839,13.518518518518519,0)" xlink:href="#aY"/><use transform="matrix(0.06172839506172839,0,0,0.06172839506172839,20.864197530864196,0)" xlink:href="#aU"/><use transform="matrix(0.06172839506172839,0,0,0.06172839506172839,33.20987654320987,0)" xlink:href="#aZ"/><use transform="matrix(0.06172839506172839,0,0,0.06172839506172839,44.32098765432099,0)" xlink:href="#aV"/><use transform="matrix(0.06172839506172839,0,0,0.06172839506172839,50.49382716049383,0)" xlink:href="#cc"/></g><g id="aw"><use transform="matrix(0.06172839506172839,0,0,0.06172839506172839,0,0)" xlink:href="#bA"/><use transform="matrix(0.06172839506172839,0,0,0.06172839506172839,11.11111111111111,0)" xlink:href="#be"/><use transform="matrix(0.06172839506172839,0,0,0.06172839506172839,23.45679012345679,0)" xlink:href="#bp"/><use transform="matrix(0.06172839506172839,0,0,0.06172839506172839,28.333333333333336,0)" xlink:href="#aU"/><use transform="matrix(0.06172839506172839,0,0,0.06172839506172839,40.67901234567901,0)" xlink:href="#bf"/></g><g id="ax"><use transform="matrix(0.06172839506172839,0,0,0.06172839506172839,0,0)" xlink:href="#bR"/><use transform="matrix(0.06172839506172839,0,0,0.06172839506172839,6.172839506172839,0)" xlink:href="#bR"/><use transform="matrix(0.06172839506172839,0,0,0.06172839506172839,12.345679012345679,0)" xlink:href="#bR"/></g><use transform="matrix(0.06172839506172839,0,0,0.06172839506172839,0,0)" xlink:href="#bk" id="ay"/><path fill="#333" d="M240 0l2-218c-23 76-54 145-80 218h-23L58-218 59 0H30v-248h44l77 211c21-75 51-140 76-211h43V0h-30" id="cd"/><g id="az"><use transform="matrix(0.06172839506172839,0,0,0.06172839506172839,0,0)" xlink:href="#cd"/><use transform="matrix(0.06172839506172839,0,0,0.06172839506172839,18.456790123456788,0)" xlink:href="#aX"/><use transform="matrix(0.06172839506172839,0,0,0.06172839506172839,30.80246913580247,0)" xlink:href="#bh"/><use transform="matrix(0.06172839506172839,0,0,0.06172839506172839,43.148148148148145,0)" xlink:href="#bf"/><use transform="matrix(0.06172839506172839,0,0,0.06172839506172839,55.49382716049382,0)" xlink:href="#aV"/><use transform="matrix(0.06172839506172839,0,0,0.06172839506172839,61.666666666666664,0)" xlink:href="#be"/><use transform="matrix(0.06172839506172839,0,0,0.06172839506172839,74.01234567901234,0)" xlink:href="#aY"/><use transform="matrix(0.06172839506172839,0,0,0.06172839506172839,81.35802469135803,0)" xlink:href="#bv"/></g><g id="aA"><use transform="matrix(0.06172839506172839,0,0,0.06172839506172839,0,0)" xlink:href="#aY"/><use transform="matrix(0.06172839506172839,0,0,0.06172839506172839,7.345679012345679,0)" xlink:href="#bf"/><use transform="matrix(0.06172839506172839,0,0,0.06172839506172839,19.691358024691358,0)" xlink:href="#bB"/><use transform="matrix(0.06172839506172839,0,0,0.06172839506172839,35.67901234567901,0)" xlink:href="#be"/><use transform="matrix(0.06172839506172839,0,0,0.06172839506172839,48.02469135802469,0)" xlink:href="#aY"/><use transform="matrix(0.06172839506172839,0,0,0.06172839506172839,55.37037037037037,0)" xlink:href="#bw"/></g><g id="aB"><use transform="matrix(0.06172839506172839,0,0,0.06172839506172839,0,0)" xlink:href="#be"/><use transform="matrix(0.06172839506172839,0,0,0.06172839506172839,12.345679012345679,0)" xlink:href="#aZ"/><use transform="matrix(0.06172839506172839,0,0,0.06172839506172839,23.45679012345679,0)" xlink:href="#bB"/><use transform="matrix(0.06172839506172839,0,0,0.06172839506172839,39.44444444444444,0)" xlink:href="#bf"/><use transform="matrix(0.06172839506172839,0,0,0.06172839506172839,51.79012345679012,0)" xlink:href="#bp"/><use transform="matrix(0.06172839506172839,0,0,0.06172839506172839,56.666666666666664,0)" xlink:href="#bp"/></g><g id="aC"><use transform="matrix(0.06172839506172839,0,0,0.06172839506172839,0,0)" xlink:href="#by"/><use transform="matrix(0.06172839506172839,0,0,0.06172839506172839,14.814814814814813,0)" xlink:href="#aV"/><use transform="matrix(0.06172839506172839,0,0,0.06172839506172839,20.98765432098765,0)" xlink:href="#aW"/><use transform="matrix(0.06172839506172839,0,0,0.06172839506172839,33.33333333333333,0)" xlink:href="#bf"/><use transform="matrix(0.06172839506172839,0,0,0.06172839506172839,45.679012345679006,0)" xlink:href="#aY"/><use transform="matrix(0.06172839506172839,0,0,0.06172839506172839,53.02469135802468,0)" xlink:href="#bf"/><use transform="matrix(0.06172839506172839,0,0,0.06172839506172839,65.37037037037037,0)" xlink:href="#aU"/><use transform="matrix(0.06172839506172839,0,0,0.06172839506172839,77.71604938271605,0)" xlink:href="#bb"/></g><g id="aD"><use transform="matrix(0.06172839506172839,0,0,0.06172839506172839,0,0)" xlink:href="#bB"/><use transform="matrix(0.06172839506172839,0,0,0.06172839506172839,15.987654320987653,0)" xlink:href="#aW"/><use transform="matrix(0.06172839506172839,0,0,0.06172839506172839,28.333333333333332,0)" xlink:href="#bc"/><use transform="matrix(0.06172839506172839,0,0,0.06172839506172839,33.20987654320987,0)" xlink:href="#br"/><use transform="matrix(0.06172839506172839,0,0,0.06172839506172839,44.32098765432099,0)" xlink:href="#aW"/></g><g id="aE"><use transform="matrix(0.06172839506172839,0,0,0.06172839506172839,0,0)" xlink:href="#be"/><use transform="matrix(0.06172839506172839,0,0,0.06172839506172839,12.345679012345679,0)" xlink:href="#bp"/><use transform="matrix(0.06172839506172839,0,0,0.06172839506172839,17.22222222222222,0)" xlink:href="#bp"/><use transform="matrix(0.06172839506172839,0,0,0.06172839506172839,22.098765432098766,0)" xlink:href="#aX"/><use transform="matrix(0.06172839506172839,0,0,0.06172839506172839,34.44444444444444,0)" xlink:href="#bB"/></g><g id="aF"><use transform="matrix(0.06172839506172839,0,0,0.06172839506172839,0,0)" xlink:href="#aW"/><use transform="matrix(0.06172839506172839,0,0,0.06172839506172839,12.345679012345679,0)" xlink:href="#bc"/><use transform="matrix(0.06172839506172839,0,0,0.06172839506172839,17.22222222222222,0)" xlink:href="#bb"/></g><g id="aG"><use transform="matrix(0.06172839506172839,0,0,0.06172839506172839,0,0)" xlink:href="#bd"/><use transform="matrix(0.06172839506172839,0,0,0.06172839506172839,12.345679012345679,0)" xlink:href="#aU"/><use transform="matrix(0.06172839506172839,0,0,0.06172839506172839,24.691358024691358,0)" xlink:href="#ba"/><use transform="matrix(0.06172839506172839,0,0,0.06172839506172839,37.03703703703704,0)" xlink:href="#bp"/><use transform="matrix(0.06172839506172839,0,0,0.06172839506172839,41.91358024691358,0)" xlink:href="#bc"/><use transform="matrix(0.06172839506172839,0,0,0.06172839506172839,46.79012345679013,0)" xlink:href="#aZ"/><use transform="matrix(0.06172839506172839,0,0,0.06172839506172839,57.90123456790124,0)" xlink:href="#aW"/></g><g id="aH"><use transform="matrix(0.06172839506172839,0,0,0.06172839506172839,0,0)" xlink:href="#bS"/><use transform="matrix(0.06172839506172839,0,0,0.06172839506172839,6.172839506172839,0)" xlink:href="#aX"/><use transform="matrix(0.06172839506172839,0,0,0.06172839506172839,18.51851851851852,0)" xlink:href="#aY"/></g><g id="aI"><use transform="matrix(0.06172839506172839,0,0,0.06172839506172839,0,0)" xlink:href="#br"/><use transform="matrix(0.06172839506172839,0,0,0.06172839506172839,11.11111111111111,0)" xlink:href="#aW"/><use transform="matrix(0.06172839506172839,0,0,0.06172839506172839,23.45679012345679,0)" xlink:href="#bf"/><use transform="matrix(0.06172839506172839,0,0,0.06172839506172839,35.80246913580247,0)" xlink:href="#be"/><use transform="matrix(0.06172839506172839,0,0,0.06172839506172839,48.148148148148145,0)" xlink:href="#bd"/><use transform="matrix(0.06172839506172839,0,0,0.06172839506172839,60.49382716049382,0)" xlink:href="#bf"/><use transform="matrix(0.06172839506172839,0,0,0.06172839506172839,72.8395061728395,0)" xlink:href="#aY"/><use transform="matrix(0.06172839506172839,0,0,0.06172839506172839,80.18518518518519,0)" xlink:href="#bk"/></g><g id="aJ"><use transform="matrix(0.06172839506172839,0,0,0.06172839506172839,0,0)" xlink:href="#by"/><use transform="matrix(0.06172839506172839,0,0,0.06172839506172839,14.814814814814813,0)" xlink:href="#bA"/><use transform="matrix(0.06172839506172839,0,0,0.06172839506172839,25.925925925925924,0)" xlink:href="#be"/><use transform="matrix(0.06172839506172839,0,0,0.06172839506172839,38.2716049382716,0)" xlink:href="#bp"/><use transform="matrix(0.06172839506172839,0,0,0.06172839506172839,43.148148148148145,0)" xlink:href="#aU"/><use transform="matrix(0.06172839506172839,0,0,0.06172839506172839,55.49382716049382,0)" xlink:href="#be"/><use transform="matrix(0.06172839506172839,0,0,0.06172839506172839,67.8395061728395,0)" xlink:href="#aV"/><use transform="matrix(0.06172839506172839,0,0,0.06172839506172839,74.01234567901234,0)" xlink:href="#bf"/></g><g id="aK"><use transform="matrix(0.06172839506172839,0,0,0.06172839506172839,0,0)" xlink:href="#aY"/><use transform="matrix(0.06172839506172839,0,0,0.06172839506172839,7.345679012345679,0)" xlink:href="#bf"/><use transform="matrix(0.06172839506172839,0,0,0.06172839506172839,19.691358024691358,0)" xlink:href="#bA"/><use transform="matrix(0.06172839506172839,0,0,0.06172839506172839,30.80246913580247,0)" xlink:href="#bc"/><use transform="matrix(0.06172839506172839,0,0,0.06172839506172839,35.67901234567901,0)" xlink:href="#bf"/><use transform="matrix(0.06172839506172839,0,0,0.06172839506172839,48.02469135802469,0)" xlink:href="#bB"/><use transform="matrix(0.06172839506172839,0,0,0.06172839506172839,64.01234567901234,0)" xlink:href="#aZ"/></g><g id="aL"><use transform="matrix(0.06172839506172839,0,0,0.06172839506172839,0,0)" xlink:href="#cd"/><use transform="matrix(0.06172839506172839,0,0,0.06172839506172839,18.456790123456788,0)" xlink:href="#aX"/><use transform="matrix(0.06172839506172839,0,0,0.06172839506172839,30.80246913580247,0)" xlink:href="#aY"/><use transform="matrix(0.06172839506172839,0,0,0.06172839506172839,38.148148148148145,0)" xlink:href="#bf"/></g><g id="aM"><use transform="matrix(0.06172839506172839,0,0,0.06172839506172839,0,0)" xlink:href="#bL"/><use transform="matrix(0.06172839506172839,0,0,0.06172839506172839,15.987654320987653,0)" xlink:href="#bf"/><use transform="matrix(0.06172839506172839,0,0,0.06172839506172839,28.333333333333332,0)" xlink:href="#bM"/><use transform="matrix(0.06172839506172839,0,0,0.06172839506172839,33.20987654320987,0)" xlink:href="#bf"/><use transform="matrix(0.06172839506172839,0,0,0.06172839506172839,45.55555555555555,0)" xlink:href="#br"/><use transform="matrix(0.06172839506172839,0,0,0.06172839506172839,56.66666666666666,0)" xlink:href="#aV"/></g><g id="aN"><use transform="matrix(0.06172839506172839,0,0,0.06172839506172839,0,0)" xlink:href="#aV"/><use transform="matrix(0.06172839506172839,0,0,0.06172839506172839,6.172839506172839,0)" xlink:href="#aW"/><use transform="matrix(0.06172839506172839,0,0,0.06172839506172839,18.51851851851852,0)" xlink:href="#be"/><use transform="matrix(0.06172839506172839,0,0,0.06172839506172839,30.864197530864196,0)" xlink:href="#bh"/></g><g id="aO"><use transform="matrix(0.06172839506172839,0,0,0.06172839506172839,0,0)" xlink:href="#aT"/><use transform="matrix(0.06172839506172839,0,0,0.06172839506172839,14.814814814814813,0)" xlink:href="#br"/><use transform="matrix(0.06172839506172839,0,0,0.06172839506172839,25.925925925925924,0)" xlink:href="#br"/><use transform="matrix(0.06172839506172839,0,0,0.06172839506172839,37.03703703703704,0)" xlink:href="#bf"/><use transform="matrix(0.06172839506172839,0,0,0.06172839506172839,49.382716049382715,0)" xlink:href="#bd"/><use transform="matrix(0.06172839506172839,0,0,0.06172839506172839,61.72839506172839,0)" xlink:href="#aV"/></g><g id="aP"><use transform="matrix(0.06172839506172839,0,0,0.06172839506172839,0,0)" xlink:href="#aX"/><use transform="matrix(0.06172839506172839,0,0,0.06172839506172839,12.345679012345679,0)" xlink:href="#aY"/></g><g id="aQ"><use transform="matrix(0.06172839506172839,0,0,0.06172839506172839,0,0)" xlink:href="#bq"/><use transform="matrix(0.06172839506172839,0,0,0.06172839506172839,15.987654320987653,0)" xlink:href="#aW"/><use transform="matrix(0.06172839506172839,0,0,0.06172839506172839,28.333333333333332,0)" xlink:href="#be"/><use transform="matrix(0.06172839506172839,0,0,0.06172839506172839,40.67901234567901,0)" xlink:href="#bh"/><use transform="matrix(0.06172839506172839,0,0,0.06172839506172839,53.02469135802469,0)" xlink:href="#bi"/><use transform="matrix(0.06172839506172839,0,0,0.06172839506172839,65.37037037037037,0)" xlink:href="#bf"/></g><path fill="#333" d="M232-93c-1 65-40 97-104 97C67 4 28-28 28-90v-158h33c8 89-33 224 67 224 102 0 64-133 71-224h33v155" id="ce"/><g id="aR"><use transform="matrix(0.06172839506172839,0,0,0.06172839506172839,0,0)" xlink:href="#ce"/><use transform="matrix(0.06172839506172839,0,0,0.06172839506172839,15.987654320987653,0)" xlink:href="#bh"/><use transform="matrix(0.06172839506172839,0,0,0.06172839506172839,28.333333333333332,0)" xlink:href="#be"/><use transform="matrix(0.06172839506172839,0,0,0.06172839506172839,40.67901234567901,0)" xlink:href="#bh"/><use transform="matrix(0.06172839506172839,0,0,0.06172839506172839,53.02469135802469,0)" xlink:href="#bc"/><use transform="matrix(0.06172839506172839,0,0,0.06172839506172839,57.901234567901234,0)" xlink:href="#bb"/><use transform="matrix(0.06172839506172839,0,0,0.06172839506172839,76.35802469135803,0)" xlink:href="#aX"/><use transform="matrix(0.06172839506172839,0,0,0.06172839506172839,88.70370370370371,0)" xlink:href="#aU"/><use transform="matrix(0.06172839506172839,0,0,0.06172839506172839,101.0493827160494,0)" xlink:href="#aZ"/></g><g id="aS"><use transform="matrix(0.06172839506172839,0,0,0.06172839506172839,0,0)" xlink:href="#aT"/><use transform="matrix(0.06172839506172839,0,0,0.06172839506172839,14.814814814814813,0)" xlink:href="#br"/><use transform="matrix(0.06172839506172839,0,0,0.06172839506172839,25.925925925925924,0)" xlink:href="#br"/><use transform="matrix(0.06172839506172839,0,0,0.06172839506172839,37.03703703703704,0)" xlink:href="#bf"/><use transform="matrix(0.06172839506172839,0,0,0.06172839506172839,49.382716049382715,0)" xlink:href="#bd"/><use transform="matrix(0.06172839506172839,0,0,0.06172839506172839,61.72839506172839,0)" xlink:href="#aV"/></g></defs></g></svg>